<svg width="743" height="386" viewBox="0 0 743 386" fill="none" xmlns="http://www.w3.org/2000/svg">
<g clip-path="url(#clip0)">
<path d="M373.884 386C575.355 386 738.679 375.67 738.679 362.927C738.679 350.185 575.355 339.855 373.884 339.855C172.413 339.855 9.08936 350.185 9.08936 362.927C9.08936 375.67 172.413 386 373.884 386Z" fill="#F2F2F2"/>
<path d="M359.903 110.343C300.468 110.343 257.794 146.773 257.794 231.778C257.794 328.116 300.468 353.617 359.903 353.617C419.338 353.617 464.553 325.687 464.553 231.778C464.553 131.392 419.338 110.343 359.903 110.343ZM360.293 321.64C319.127 321.64 297.621 298.566 297.621 231.84C297.621 172.964 320.008 141.916 361.174 141.916C402.34 141.916 424.727 162.31 424.727 231.84C424.727 296.884 401.459 321.64 360.293 321.64Z" fill="#2F2E41"/>
<path d="M222.204 286.423H197.63V217.288C197.63 213.616 196.103 210.095 193.386 207.498C190.668 204.902 186.982 203.443 183.138 203.443H177.38C175.477 203.443 173.592 203.801 171.834 204.497C170.076 205.193 168.478 206.213 167.133 207.498C165.787 208.784 164.719 210.31 163.991 211.99C163.263 213.67 162.888 215.47 162.888 217.288V286.423H93.5734C92.1474 286.423 90.7457 286.071 89.5041 285.401C88.2626 284.731 87.2234 283.766 86.4874 282.599C85.7514 281.432 85.3435 280.104 85.3034 278.742C85.2633 277.38 85.5922 276.031 86.2584 274.827L159.62 142.172C160.535 140.518 161.089 138.704 161.25 136.84C161.41 134.976 161.174 133.1 160.555 131.325C159.936 129.551 158.946 127.914 157.647 126.515C156.348 125.116 154.765 123.983 152.995 123.184L148.664 121.23C145.301 119.713 141.457 119.489 137.926 120.605C134.395 121.72 131.448 124.09 129.695 127.223L40.2209 287.133C38.6973 289.856 37.9001 292.896 37.9001 295.984V295.984C37.9001 298.449 38.4084 300.891 39.396 303.169C40.3836 305.446 41.831 307.516 43.6558 309.259C45.4806 311.003 47.6469 312.386 50.0311 313.329C52.4153 314.273 54.9706 314.758 57.5512 314.758H162.888V358.475C162.888 360.654 163.337 362.812 164.21 364.826C165.083 366.839 166.363 368.669 167.976 370.21C169.589 371.751 171.504 372.974 173.611 373.808C175.719 374.642 177.978 375.071 180.259 375.071H180.259C182.54 375.071 184.799 374.642 186.907 373.808C189.014 372.974 190.929 371.751 192.542 370.21C194.155 368.669 195.435 366.839 196.308 364.826C197.181 362.812 197.63 360.654 197.63 358.475V314.758H222.204C226.137 314.758 229.909 313.266 232.69 310.609C235.471 307.952 237.033 304.348 237.033 300.591V300.591C237.033 296.833 235.471 293.23 232.69 290.573C229.909 287.916 226.137 286.423 222.204 286.423V286.423Z" fill="#0096C7"/>
<path d="M677.244 286.423H652.67V217.288C652.67 213.616 651.143 210.095 648.426 207.498C645.708 204.902 642.022 203.443 638.178 203.443H632.42C630.517 203.443 628.632 203.801 626.874 204.497C625.116 205.193 623.518 206.213 622.173 207.498C620.827 208.784 619.759 210.31 619.031 211.99C618.303 213.67 617.928 215.47 617.928 217.288V286.423H548.613C547.187 286.423 545.786 286.071 544.544 285.401C543.303 284.731 542.263 283.766 541.527 282.599C540.791 281.432 540.384 280.104 540.343 278.742C540.303 277.38 540.632 276.031 541.298 274.827L614.66 142.172C615.575 140.518 616.129 138.704 616.29 136.84C616.45 134.976 616.214 133.1 615.595 131.325C614.976 129.551 613.987 127.914 612.687 126.515C611.388 125.116 609.805 123.983 608.035 123.184L603.704 121.23C600.341 119.713 596.497 119.489 592.966 120.605C589.435 121.72 586.488 124.09 584.735 127.223L495.261 287.133C493.737 289.856 492.94 292.896 492.94 295.984V295.984C492.94 300.963 495.011 305.739 498.696 309.259C502.381 312.78 507.379 314.758 512.591 314.758H617.928V358.475C617.928 362.876 619.758 367.098 623.016 370.21C626.274 373.322 630.692 375.071 635.299 375.071V375.071C639.906 375.071 644.325 373.322 647.582 370.21C650.84 367.098 652.67 362.876 652.67 358.475V314.758H677.244C681.177 314.758 684.949 313.266 687.73 310.609C690.511 307.952 692.073 304.348 692.073 300.591V300.591C692.073 296.833 690.511 293.23 687.73 290.573C684.949 287.916 681.177 286.423 677.244 286.423Z" fill="#0096C7"/>
<path d="M228.983 278.328H204.409V209.193C204.409 207.375 204.034 205.574 203.306 203.894C202.578 202.215 201.51 200.688 200.165 199.403C198.819 198.117 197.221 197.097 195.463 196.401C193.705 195.705 191.82 195.347 189.917 195.347H184.159C180.316 195.347 176.629 196.806 173.912 199.403C171.194 201.999 169.667 205.521 169.667 209.193V278.328H100.352C98.9265 278.328 97.5247 277.976 96.2832 277.306C95.0417 276.636 94.0025 275.67 93.2664 274.503C92.5304 273.337 92.1226 272.008 92.0824 270.646C92.0423 269.284 92.3713 267.936 93.0374 266.731L166.399 134.076C167.314 132.422 167.868 130.608 168.029 128.744C168.189 126.88 167.953 125.004 167.334 123.23C166.715 121.455 165.726 119.819 164.426 118.42C163.127 117.02 161.544 115.887 159.774 115.088L155.443 113.135C152.08 111.617 148.236 111.393 144.705 112.509C141.174 113.624 138.227 115.994 136.474 119.127L46.9999 279.037C45.4763 281.761 44.6792 284.801 44.6792 287.888V287.888C44.6792 292.867 46.7496 297.643 50.4349 301.164C54.1202 304.685 59.1185 306.663 64.3303 306.663H169.667V350.379C169.667 352.558 170.116 354.717 170.989 356.73C171.862 358.744 173.142 360.573 174.755 362.114C176.368 363.655 178.283 364.878 180.39 365.712C182.498 366.546 184.757 366.975 187.038 366.975H187.038C191.645 366.975 196.064 365.227 199.321 362.114C202.579 359.002 204.409 354.781 204.409 350.379V306.663H228.983C230.931 306.663 232.859 306.296 234.658 305.584C236.457 304.872 238.092 303.829 239.469 302.513C240.846 301.197 241.938 299.636 242.683 297.917C243.429 296.198 243.812 294.356 243.812 292.495V292.495C243.812 290.635 243.429 288.792 242.683 287.074C241.938 285.355 240.846 283.793 239.469 282.477C238.092 281.162 236.457 280.118 234.658 279.406C232.859 278.694 230.931 278.328 228.983 278.328V278.328Z" stroke="#3F3D56" stroke-miterlimit="10"/>
<path d="M689.955 278.328H665.381V209.193C665.381 205.521 663.854 201.999 661.136 199.403C658.419 196.806 654.732 195.347 650.889 195.347H645.131C643.228 195.347 641.343 195.705 639.585 196.401C637.827 197.097 636.229 198.117 634.883 199.403C633.538 200.688 632.47 202.215 631.742 203.894C631.013 205.574 630.639 207.375 630.639 209.193V278.328H561.324C559.898 278.328 558.496 277.976 557.255 277.306C556.013 276.636 554.974 275.67 554.238 274.503C553.502 273.337 553.094 272.008 553.054 270.646C553.014 269.284 553.343 267.936 554.009 266.731L627.371 134.076C628.285 132.422 628.84 130.608 629 128.744C629.161 126.88 628.925 125.004 628.306 123.23C627.686 121.455 626.697 119.819 625.398 118.42C624.099 117.02 622.516 115.887 620.745 115.088L616.415 113.135C613.052 111.617 609.207 111.393 605.677 112.509C602.146 113.624 599.199 115.994 597.446 119.127L507.972 279.037C506.448 281.761 505.651 284.801 505.651 287.888C505.651 292.867 507.721 297.643 511.407 301.164C515.092 304.685 520.09 306.663 525.302 306.663H630.639V350.379C630.639 354.781 632.469 359.002 635.727 362.114C638.984 365.227 643.403 366.975 648.01 366.975V366.975C652.617 366.975 657.035 365.227 660.293 362.114C663.551 359.002 665.381 354.781 665.381 350.379V306.663H689.955C691.902 306.663 693.83 306.296 695.63 305.584C697.429 304.872 699.063 303.829 700.44 302.513C701.817 301.197 702.91 299.636 703.655 297.917C704.4 296.198 704.784 294.356 704.784 292.495V292.495C704.784 288.738 703.222 285.134 700.441 282.477C697.66 279.82 693.888 278.328 689.955 278.328V278.328Z" stroke="#3F3D56" stroke-miterlimit="10"/>
<path d="M373.46 103.057C314.025 103.057 271.352 139.487 271.352 224.492C271.352 320.83 314.025 346.331 373.46 346.331C432.895 346.331 478.111 318.401 478.111 224.492C478.111 124.106 432.895 103.057 373.46 103.057ZM373.851 314.354C332.685 314.354 311.178 291.28 311.178 224.554C311.178 165.678 333.565 134.63 374.732 134.63C415.898 134.63 438.285 155.024 438.285 224.554C438.285 289.598 415.017 314.354 373.851 314.354V314.354Z" stroke="#3F3D56" stroke-miterlimit="10"/>
<path d="M325.819 20.5819C330.747 20.5819 334.741 16.7656 334.741 12.0581C334.741 7.35053 330.747 3.5343 325.819 3.5343C320.892 3.5343 316.897 7.35053 316.897 12.0581C316.897 16.7656 320.892 20.5819 325.819 20.5819Z" fill="#2F2E41"/>
<path d="M347.58 61.9533C361.401 61.9533 372.605 48.0846 372.605 30.9767C372.605 13.8687 361.401 0 347.58 0C333.759 0 322.555 13.8687 322.555 30.9767C322.555 48.0846 333.759 61.9533 347.58 61.9533Z" fill="#2F2E41"/>
<path opacity="0.1" d="M347.58 52.5979C335.044 52.5979 324.661 41.1873 322.839 26.299C322.65 27.8516 322.555 29.4135 322.555 30.9766C322.555 48.0846 333.759 61.9533 347.58 61.9533C361.401 61.9533 372.605 48.0846 372.605 30.9766C372.605 29.4135 372.51 27.8516 372.321 26.299C370.499 41.1873 360.116 52.5979 347.58 52.5979Z" fill="black"/>
<path d="M398.503 121.693C397.965 123.803 395.648 125.493 393.082 126.673C387.686 129.155 381.031 129.896 374.576 130.145C372.929 130.24 371.277 130.211 369.635 130.058C366.453 129.764 363.468 128.453 361.163 126.337C360.999 126.234 360.864 126.094 360.772 125.928C360.679 125.762 360.633 125.577 360.636 125.389C360.639 125.202 360.691 125.018 360.789 124.855C360.886 124.692 361.026 124.556 361.193 124.458C364.63 120.851 370.365 118.64 376.142 117.048C380.523 115.84 388.162 112.713 392.94 113.135C397.568 113.544 399.181 119.029 398.503 121.693Z" fill="#3F3D56"/>
<path opacity="0.1" d="M398.503 121.693C397.965 123.803 395.648 125.493 393.082 126.673C387.686 129.155 381.031 129.896 374.576 130.145C372.929 130.24 371.277 130.211 369.635 130.058C366.453 129.764 363.468 128.453 361.163 126.337C360.999 126.234 360.864 126.094 360.772 125.928C360.679 125.762 360.633 125.577 360.636 125.389C360.639 125.202 360.691 125.018 360.789 124.855C360.886 124.692 361.026 124.556 361.193 124.458C364.63 120.851 370.365 118.64 376.142 117.048C380.523 115.84 388.162 112.713 392.94 113.135C397.568 113.544 399.181 119.029 398.503 121.693Z" fill="black"/>
<path d="M329.902 105.924C328.255 109.008 327.957 112.59 329.073 115.884C330.208 119.153 332.333 122.026 335.179 124.14C342.16 129.487 351.767 130.222 360.714 130.148C368.555 130.083 376.385 129.57 384.161 128.613C386.767 128.392 389.328 127.824 391.769 126.925C394.689 125.718 397.255 123.504 398.295 120.631C399.334 117.759 398.597 114.241 396.128 112.324C393.958 110.639 390.967 110.407 388.176 110.247L372.21 109.33C373.787 107.805 375.888 106.943 377.809 105.834C380.357 104.363 382.05 101.893 383.904 99.6664C386.759 96.4063 389.865 93.3548 393.197 90.5376C393.717 93.3854 395.602 95.724 397.822 97.689C400.041 99.6539 402.599 101.236 404.906 103.107C410.493 107.638 414.516 113.788 420.391 117.973C424.433 116.958 428.212 115.156 431.49 112.679L429.206 108.727C429.016 108.32 428.72 107.967 428.345 107.701C427.699 107.321 426.866 107.517 426.115 107.41C424.109 107.122 423.233 104.91 422.446 103.123C420.285 98.2199 416.147 94.4154 412.613 90.3033C410.005 87.2679 407.692 84.012 405.701 80.576C404.514 78.5268 403.427 76.3931 401.816 74.6276C400.205 72.8621 397.948 71.4741 395.496 71.4691C393.33 71.4648 391.332 72.5154 389.47 73.5722C383.798 76.7911 378.34 80.3435 373.128 84.2087C370.401 86.2316 367.691 88.3688 364.491 89.6092C363.145 90.1314 361.725 90.4883 360.432 91.1237C358.169 92.2366 356.451 94.1195 354.602 95.791C348.006 101.753 338.976 105.615 329.902 105.924Z" fill="#3F3D56"/>
<path d="M363.287 63.4917C363.213 65.314 362.807 67.1101 362.088 68.7994C361.723 69.6419 361.181 70.4036 360.495 71.0371C359.809 71.6706 358.993 72.1622 358.099 72.4812C356.83 72.8061 355.499 72.8474 354.21 72.6018C353.087 72.4896 352.004 72.1372 351.042 71.5706C349.545 70.5873 348.799 68.8326 348.527 67.1154C348.255 65.4002 348.376 63.6477 348.202 61.92C348.033 60.5246 347.755 59.1432 347.371 57.787C347.254 57.3359 347.134 56.8869 347.016 56.4378C346.901 55.9887 346.788 55.5397 346.683 55.0906C346.588 54.6686 346.499 54.2445 346.422 53.8183C346.359 53.4586 346.303 53.0969 346.261 52.7331C346.223 51.6545 346.035 50.5855 345.702 49.5543C345.389 48.8855 344.998 48.2529 344.536 47.6687C344.338 47.3984 344.146 47.1282 343.97 46.8475C343.46 46.1181 343.223 45.2456 343.298 44.3715C343.318 44.2363 343.353 44.1034 343.4 43.9744C343.417 43.9245 343.437 43.8746 343.459 43.8268C343.654 43.776 343.834 43.6803 343.982 43.5481C344.131 43.4158 344.243 43.251 344.309 43.0679C344.384 42.6746 344.349 42.2694 344.207 41.8933C344.045 41.3678 343.822 40.8609 343.543 40.3819C343.361 40.0659 342.74 39.4962 342.736 39.1345C342.727 38.4068 344.216 37.8206 344.819 37.5337C346.659 36.6535 348.71 36.256 350.764 36.3819C352.08 36.4672 353.508 36.8539 354.234 37.9079C354.887 38.858 354.8 40.0887 355.079 41.1927C355.108 41.3531 355.179 41.504 355.285 41.6313C355.427 41.755 355.606 41.8334 355.797 41.8558C356.119 41.9171 356.45 41.9298 356.776 41.8933H356.778C356.865 41.8868 356.95 41.8749 357.035 41.8579C357.543 41.7683 358.024 41.57 358.441 41.2779C358.711 41.2093 358.983 41.1532 359.257 41.1095C359.268 41.1084 359.279 41.1063 359.289 41.1033C360.38 44.3901 360.521 47.914 361.413 51.2611C361.855 52.9264 362.488 54.5708 362.577 56.2839C362.584 56.3587 362.586 56.4357 362.588 56.5126C362.601 57.0635 362.556 57.6186 362.58 58.1675C362.588 58.4146 362.617 58.6607 362.667 58.9034C362.764 59.2937 362.886 59.6783 363.03 60.0552L363.037 60.0739C363.078 60.1944 363.117 60.3171 363.15 60.4398C363.174 60.5292 363.195 60.6165 363.213 60.7059L363.215 60.7121C363.376 61.6308 363.4 62.5666 363.287 63.4917V63.4917Z" fill="#FBBEBE"/>
<path d="M348.015 41.9952C355.106 41.9952 360.854 36.5036 360.854 29.7293C360.854 22.955 355.106 17.4634 348.015 17.4634C340.925 17.4634 335.177 22.955 335.177 29.7293C335.177 36.5036 340.925 41.9952 348.015 41.9952Z" fill="#FBBEBE"/>
<path d="M429.526 96.5599C429.154 93.2134 427.909 90.0096 425.905 87.242C426.238 89.1338 426.572 91.025 426.906 92.9155C426.491 93.0304 426.049 93.0269 425.635 92.9054C425.222 92.7839 424.854 92.5497 424.578 92.2315C424.037 91.5866 423.624 90.8533 423.357 90.0673C421.898 86.6079 419.991 83.337 417.68 80.3315C409.506 79.6808 401.427 76.4438 394.239 72.6705C387.049 68.8992 380.321 64.3774 373.227 60.4461C371.997 59.7359 370.716 59.1106 369.393 58.575C367.173 57.7247 364.682 57.284 362.577 56.284C362.436 56.2175 362.295 56.1468 362.155 56.074C361.68 55.827 361.23 55.5382 360.811 55.2112C360.584 55.0355 360.369 54.8466 360.166 54.6458C359.116 53.4788 358.284 52.1484 357.705 50.7124C356.576 48.3257 356.173 45.4463 355.046 43.0597C355.564 42.5971 356.146 42.2047 356.776 41.8934H356.778C356.87 41.8476 356.961 41.804 357.055 41.7624C357.501 41.5617 357.965 41.3996 358.441 41.278C358.711 41.2094 358.983 41.1533 359.257 41.1096C359.268 41.1085 359.279 41.1064 359.289 41.1034C360.561 40.9054 361.864 41.0039 363.087 41.3903C364.875 41.9682 366.383 43.122 367.887 44.2135C370.33 45.8577 372.673 47.6332 374.905 49.5315C376.145 50.6666 377.277 51.914 378.611 52.9452C379.719 53.7625 380.888 54.5025 382.108 55.1593C389.326 59.2673 396.544 63.3747 403.764 67.4813C406.208 68.8721 408.653 70.263 411.043 71.7349C414.672 73.9719 418.172 76.3959 421.668 78.8179C423.729 80.2441 425.789 81.671 427.849 83.0985C428.524 83.5103 429.117 84.0341 429.6 84.6453C430.027 85.3392 430.292 86.1128 430.377 86.9135C430.894 90.148 430.602 93.4536 429.526 96.5599V96.5599Z" fill="#FBBEBE"/>
<path d="M366.47 72.716C365.604 76.427 361.679 78.6703 359.627 81.93C357.076 85.9757 358.116 90.6783 359.074 95.3124C357.324 96.7531 355.574 98.1938 353.823 99.6345C352.857 100.427 351.891 101.223 350.851 101.923C349.334 102.894 347.749 103.764 346.107 104.526C344.557 105.287 343.008 106.049 341.459 106.811C340.018 107.585 338.492 108.203 336.909 108.653C333.856 109.402 330.613 108.878 327.593 108.011C327.237 107.921 326.894 107.788 326.574 107.614C326.386 107.506 326.222 107.364 326.091 107.196C325.794 106.686 325.685 106.094 325.785 105.518C326.091 100.662 327.334 95.907 328.572 91.1877C329.234 88.3565 330.124 85.5783 331.233 82.878C332.322 80.5643 333.573 78.3236 334.978 76.1713C336.529 73.4633 338.367 70.9143 340.462 68.5643C341.482 67.6599 342.341 66.6023 343.004 65.4334C343.776 63.7495 343.478 61.8181 343.635 59.9844C343.755 58.6068 344.137 57.2617 344.764 56.0157V56.0136C345.099 55.3425 345.503 54.7046 345.97 54.1093C346.181 54.5791 346.392 55.0483 346.603 55.5167C346.742 55.8244 346.88 56.1314 347.016 56.4377C347.195 56.8328 347.372 57.2264 347.547 57.6186C348.054 58.7454 348.561 59.8715 349.066 60.9969C349.613 62.4144 350.391 63.74 351.373 64.9241C351.822 65.5305 352.427 66.0153 353.131 66.3312C353.834 66.6471 354.611 66.7833 355.386 66.7265C356.161 66.6698 356.908 66.4219 357.552 66.0073C358.197 65.5926 358.719 65.0253 359.065 64.3607C359.797 63.1201 360.326 61.7805 360.636 60.3878C361.066 58.692 361.125 56.9298 360.81 55.2112C360.286 51.9014 358.813 48.521 357.742 45.4462C357.306 44.421 357.054 43.3331 356.996 42.228C356.998 42.1038 357.011 41.98 357.035 41.8579C357.042 41.8267 357.048 41.7935 357.055 41.7623C357.501 41.5616 357.964 41.3995 358.441 41.2779C358.711 41.2093 358.983 41.1532 359.257 41.1095C360.199 45.9826 361.143 50.8557 362.088 55.7288C362.11 55.8432 362.134 55.9575 362.155 56.0739C362.29 56.7724 362.427 57.471 362.58 58.1674C362.717 58.7994 362.865 59.4294 363.03 60.0552L363.037 60.0739C363.093 60.2859 363.152 60.4959 363.213 60.7059L363.215 60.7121C363.383 61.2859 363.57 61.8555 363.781 62.4169C365.06 65.7993 367.291 69.2047 366.47 72.716Z" fill="#0096C7"/>
<path d="M418.575 124.867C418.535 125.582 418.679 126.295 418.997 126.944C419.8 128.347 421.728 128.666 423.397 128.797C433.142 129.562 442.947 129.277 452.626 127.946C453.151 127.912 453.66 127.761 454.114 127.505C455.49 126.583 454.641 124.337 453.139 123.618C451.636 122.898 449.853 123.072 448.204 122.76C446.566 122.366 445.007 121.72 443.586 120.847C440.243 119.012 436.948 117.098 433.702 115.107C431.769 113.921 429.488 112.656 427.312 113.359C421.416 115.264 418.536 118.791 418.575 124.867Z" fill="#3F3D56"/>
<path d="M346.734 54.8308V54.8329C346.718 54.9202 346.703 55.0054 346.683 55.0907C346.66 55.2321 346.631 55.3755 346.603 55.5168C346.333 56.837 346.002 58.1509 345.622 59.4565C344.577 63.0635 343.178 66.6123 341.79 70.1091C338.064 79.4853 334.338 88.8621 330.611 98.2396C329.671 100.601 328.733 102.965 327.665 105.279C327.308 106.05 326.94 106.828 326.574 107.614C325.264 110.427 324.007 113.331 323.589 116.325C323.199 118.295 323.155 120.313 323.456 122.297C323.874 124.26 325.121 126.177 327.073 126.902C328.026 127.258 329.39 127.734 329.129 128.68C328.988 129.2 328.37 129.453 327.815 129.541C327.082 129.652 326.333 129.608 325.62 129.412C324.907 129.216 324.247 128.872 323.689 128.406C322.647 127.522 321.846 126.148 320.46 126C319.5 125.9 318.617 126.449 317.738 126.834C314.151 128.399 309.973 127.304 306.207 126.191C306.502 124.734 308.034 123.774 309.556 123.483C311.077 123.189 312.65 123.397 314.201 123.358C314.698 123.383 315.191 123.262 315.614 123.011C315.992 122.679 316.258 122.245 316.375 121.767C317.375 118.938 318.118 116.032 318.597 113.081C319.098 109.998 319.306 106.867 320.02 103.822C320.575 101.445 321.432 99.144 322.168 96.8114C323.59 92.0087 324.758 87.1405 325.667 82.2254C326.127 80.1833 326.456 78.1165 326.653 76.0363C326.777 74.3107 326.718 72.5769 326.892 70.8576C327.184 68.6207 327.673 66.4113 328.352 64.2527C329.018 61.8972 329.683 59.5431 330.348 57.1904C331.334 53.7081 332.391 50.0907 334.889 47.3839C335.757 46.431 336.82 45.6585 338.013 45.1142C339.206 44.5699 340.503 44.2655 341.824 44.2197C342.32 44.2192 342.814 44.27 343.298 44.3715C343.378 44.3902 343.459 44.4089 343.539 44.4297C344.066 44.5614 344.572 44.7615 345.043 45.0243C345.813 44.5565 346.205 44.7208 346.716 45.4422C347.164 46.2056 347.376 47.0753 347.325 47.9494C347.369 50.2563 347.17 52.5616 346.734 54.8308Z" fill="#FBBEBE"/>
<path d="M347.58 57.5875L347.547 57.6187L347.371 57.7871L345.622 59.4565L344.764 56.0158L341.824 44.2197C342.32 44.2191 342.814 44.27 343.298 44.3714C343.319 44.2363 343.353 44.1034 343.4 43.9744L343.539 44.4297L344.536 47.6687L346.422 53.8183L346.734 54.8307V54.8328L347.58 57.5875Z" fill="#0096C7"/>
<path d="M358.682 19.9549C358.681 21.0471 358.454 22.1284 358.015 23.1369C357.576 24.1454 356.933 25.0613 356.123 25.8323C355.83 26.1129 355.515 26.3727 355.183 26.6095C353.681 27.691 351.852 28.2764 349.971 28.2772H339.532C337.225 28.2738 335.013 27.3959 333.384 25.8363C331.754 24.2767 330.838 22.1629 330.838 19.9589C330.838 17.755 331.754 15.6411 333.384 14.0815C335.013 12.5219 337.225 11.644 339.532 11.6406H349.971C352.278 11.6464 354.489 12.5239 356.121 14.0817C357.753 15.6394 358.674 17.7508 358.682 19.9549V19.9549Z" fill="#2F2E41"/>
<path d="M368.47 20.5819C373.398 20.5819 377.392 16.7656 377.392 12.0581C377.392 7.35053 373.398 3.5343 368.47 3.5343C363.543 3.5343 359.548 7.35053 359.548 12.0581C359.548 16.7656 363.543 20.5819 368.47 20.5819Z" fill="#2F2E41"/>
<path opacity="0.1" d="M368.253 3.5343C368.143 3.5343 368.035 3.53845 367.926 3.54219C370.234 3.62235 372.42 4.55465 374.023 6.14293C375.626 7.73121 376.522 9.85164 376.522 12.0581C376.522 14.2645 375.626 16.3849 374.023 17.9732C372.42 19.5615 370.234 20.4938 367.926 20.574C368.035 20.5777 368.143 20.5819 368.253 20.5819C370.619 20.5819 372.888 19.6838 374.561 18.0853C376.235 16.4868 377.174 14.3187 377.174 12.0581C377.174 9.79744 376.235 7.62938 374.561 6.03086C372.888 4.43234 370.619 3.5343 368.253 3.5343V3.5343Z" fill="black"/>
<path opacity="0.1" d="M325.82 3.5343C325.929 3.5343 326.037 3.53845 326.146 3.54219C323.838 3.62235 321.653 4.55465 320.049 6.14293C318.446 7.73121 317.551 9.85164 317.551 12.0581C317.551 14.2645 318.446 16.3849 320.049 17.9732C321.653 19.5615 323.838 20.4938 326.146 20.574C326.037 20.5777 325.929 20.5819 325.82 20.5819C323.455 20.5799 321.187 19.6809 319.516 18.0826C317.844 16.4843 316.906 14.3174 316.906 12.0581C316.906 9.79874 317.844 7.63181 319.516 6.03351C321.187 4.43521 323.455 3.53629 325.82 3.5343Z" fill="black"/>
<path opacity="0.1" d="M355.182 26.6096C353.681 27.6911 351.852 28.2765 349.971 28.2773H339.531C337.651 28.2765 335.822 27.6911 334.32 26.6096H355.182Z" fill="black"/>
<path d="M422.599 88.3721C422.599 88.3721 424.848 94.5639 426.906 92.9153L425.266 84.8219L422.599 88.3721Z" fill="#FBBEBE"/>
<path d="M696.301 277.195C698.395 277.923 700.639 278.176 702.853 277.934C705.068 277.692 707.193 276.962 709.062 275.801C710.931 274.641 712.492 273.081 713.623 271.246C714.753 269.41 715.422 267.349 715.576 265.225C715.731 263.1 715.367 260.971 714.513 259.003C713.659 257.036 712.338 255.286 710.655 253.889C708.972 252.493 706.972 251.489 704.814 250.957C702.656 250.425 700.397 250.38 698.217 250.824L698.577 257.901L695.073 251.836C691.633 253.38 688.975 256.165 687.684 259.581C687.226 260.777 686.947 262.029 686.856 263.3C686.635 266.282 687.437 269.252 689.142 271.76C690.846 274.267 693.359 276.175 696.301 277.195V277.195Z" fill="#57B894"/>
<path d="M713.643 359.283C712.406 353.264 717.767 347.927 723.063 344.459C728.358 340.991 734.546 337.583 736.353 331.696C738.95 323.237 731.215 315.49 725.194 308.809C720.728 303.851 716.892 298.404 713.767 292.584C712.515 290.25 711.364 287.81 711.034 285.206C710.559 281.456 711.82 277.725 713.091 274.148C717.323 262.233 721.847 250.417 726.665 238.702" stroke="#3F3D56" stroke-miterlimit="10"/>
<path d="M696.893 275.373C698.988 276.101 701.231 276.354 703.446 276.112C705.661 275.87 707.786 275.14 709.655 273.979C711.524 272.818 713.085 271.259 714.216 269.424C715.346 267.588 716.015 265.527 716.169 263.403C716.324 261.278 715.959 259.148 715.105 257.181C714.251 255.214 712.931 253.464 711.248 252.067C709.564 250.671 707.565 249.667 705.407 249.135C703.248 248.603 700.99 248.557 698.81 249.001L699.17 256.079L695.665 250.013C692.225 251.558 689.568 254.343 688.277 257.759C687.819 258.955 687.54 260.207 687.449 261.478C687.228 264.46 688.03 267.43 689.734 269.937C691.439 272.445 693.952 274.353 696.893 275.373V275.373Z" stroke="#3F3D56" stroke-miterlimit="10"/>
<path d="M711.884 236.258C712.706 234.09 714.086 232.156 715.896 230.632C717.707 229.108 719.889 228.044 722.243 227.538L723.428 234.266L725.625 227.2C728.676 227.243 731.633 228.211 734.07 229.965C736.507 231.719 738.298 234.167 739.183 236.956C740.069 239.745 740.004 242.731 738.998 245.483C737.991 248.234 736.096 250.609 733.585 252.264C731.073 253.92 728.077 254.77 725.027 254.692C721.977 254.614 719.032 253.612 716.617 251.83C714.202 250.049 712.443 247.581 711.592 244.782C710.741 241.983 710.843 238.998 711.884 236.258H711.884Z" fill="#57B894"/>
<path d="M712.674 233.828C713.496 231.661 714.876 229.726 716.686 228.202C718.497 226.679 720.68 225.615 723.034 225.108L724.219 231.837L726.416 224.77C729.466 224.813 732.423 225.782 734.86 227.535C737.297 229.289 739.088 231.737 739.974 234.526C740.859 237.315 740.795 240.301 739.788 243.053C738.782 245.805 736.886 248.18 734.375 249.835C731.864 251.49 728.867 252.34 725.817 252.262C722.767 252.184 719.822 251.182 717.408 249.401C714.993 247.62 713.233 245.151 712.382 242.352C711.531 239.553 711.633 236.568 712.674 233.828H712.674Z" stroke="#3F3D56" stroke-miterlimit="10"/>
<path d="M722.668 308.945C725.99 310.096 729.639 310.04 732.921 308.785C736.202 307.531 738.885 305.167 740.46 302.144C742.034 299.121 742.389 295.651 741.457 292.394C740.524 289.137 738.37 286.321 735.405 284.484L733.717 289.915L732.52 283.107C732.508 283.102 732.496 283.097 732.483 283.094C730.706 282.477 728.819 282.2 726.931 282.28C725.042 282.36 723.188 282.795 721.475 283.559C719.762 284.324 718.224 285.404 716.947 286.737C715.671 288.07 714.683 289.63 714.038 291.328C713.393 293.026 713.105 294.829 713.19 296.633C713.275 298.438 713.731 300.209 714.532 301.845C715.333 303.481 716.464 304.95 717.86 306.168C719.256 307.386 720.89 308.33 722.667 308.945H722.668Z" fill="#57B894"/>
<path d="M723.352 306.484C726.675 307.635 730.324 307.579 733.606 306.324C736.887 305.07 739.57 302.706 741.144 299.683C742.719 296.66 743.074 293.19 742.141 289.933C741.209 286.676 739.055 283.86 736.09 282.023L734.402 287.454L733.205 280.646C733.193 280.641 733.181 280.636 733.168 280.633C731.391 280.016 729.504 279.739 727.615 279.819C725.727 279.899 723.873 280.334 722.16 281.099C720.447 281.863 718.908 282.943 717.632 284.276C716.356 285.609 715.368 287.169 714.723 288.867C714.078 290.565 713.79 292.368 713.875 294.172C713.959 295.977 714.415 297.748 715.217 299.384C716.018 301.02 717.149 302.489 718.545 303.707C719.941 304.926 721.575 305.869 723.352 306.484H723.352Z" stroke="#3F3D56" stroke-miterlimit="10"/>
<path d="M707.684 331.781C708.255 334.886 709.926 337.709 712.418 339.777C714.909 341.845 718.069 343.031 721.367 343.137C724.666 343.243 727.902 342.263 730.534 340.36C733.165 338.457 735.032 335.747 735.82 332.686C736.609 329.624 736.272 326.397 734.865 323.544C733.458 320.692 731.068 318.388 728.095 317.02C725.122 315.652 721.746 315.302 718.535 316.029C715.324 316.756 712.472 318.515 710.457 321.013L716.87 330.234L708.108 325.34C707.428 327.423 707.283 329.632 707.684 331.781V331.781Z" fill="#57B894"/>
<path d="M708.277 329.958C708.848 333.064 710.519 335.887 713.011 337.955C715.502 340.023 718.662 341.209 721.96 341.315C725.259 341.421 728.495 340.441 731.126 338.538C733.758 336.635 735.624 333.925 736.413 330.864C737.202 327.802 736.864 324.574 735.458 321.722C734.051 318.87 731.661 316.566 728.688 315.198C725.714 313.829 722.339 313.479 719.128 314.206C715.916 314.933 713.064 316.693 711.05 319.191L717.463 328.412L708.701 323.517C708.021 325.601 707.876 327.81 708.277 329.958V329.958Z" stroke="#3F3D56" stroke-miterlimit="10"/>
<path d="M6.22912 310.692C7.60552 311.17 9.07932 311.336 10.5344 311.177C11.9894 311.018 13.3859 310.539 14.6139 309.776C15.8418 309.014 16.8675 307.989 17.6102 306.783C18.353 305.577 18.7924 304.223 18.8938 302.827C18.9953 301.431 18.756 300.032 18.1948 298.74C17.6337 297.447 16.766 296.297 15.6602 295.38C14.5544 294.462 13.2407 293.803 11.8226 293.453C10.4045 293.104 8.92079 293.074 7.48844 293.365L7.72514 298.015L5.42235 294.03C3.1623 295.045 1.41632 296.875 0.568089 299.119C0.266847 299.905 0.0837139 300.728 0.0241537 301.563C-0.121199 303.522 0.405909 305.473 1.5256 307.121C2.64529 308.768 4.29654 310.022 6.22912 310.692V310.692Z" fill="#57B894"/>
<path d="M17.6233 364.625C16.8104 360.67 20.3328 357.164 23.8121 354.886C27.2914 352.607 31.3568 350.368 32.5439 346.5C34.2501 340.942 29.168 335.852 25.2125 331.463C22.2778 328.205 19.7577 324.627 17.7048 320.803C16.8122 319.3 16.2043 317.66 15.909 315.955C15.5971 313.492 16.4256 311.04 17.2603 308.69C20.0407 300.862 23.0135 293.099 26.1787 285.401" stroke="#3F3D56" stroke-miterlimit="10"/>
<path d="M6.61854 309.495C7.99493 309.973 9.46873 310.139 10.9238 309.98C12.3788 309.821 13.7753 309.342 15.0033 308.579C16.2312 307.817 17.2569 306.792 17.9996 305.586C18.7424 304.38 19.1818 303.026 19.2832 301.63C19.3847 300.234 19.1454 298.835 18.5842 297.543C18.0231 296.25 17.1554 295.1 16.0496 294.183C14.9438 293.265 13.6301 292.606 12.212 292.256C10.7939 291.907 9.3102 291.877 7.87785 292.168L8.11455 296.818L5.81176 292.833C3.55171 293.848 1.80572 295.678 0.957494 297.922C0.656255 298.708 0.473124 299.531 0.413561 300.366C0.268198 302.325 0.795303 304.276 1.915 305.924C3.03469 307.571 4.68594 308.825 6.61854 309.495V309.495Z" stroke="#3F3D56" stroke-miterlimit="10"/>
<path d="M16.4677 283.795C17.0078 282.371 17.9144 281.1 19.1039 280.099C20.2933 279.098 21.7274 278.399 23.274 278.066L24.0526 282.487L25.4961 277.844C27.5004 277.873 29.4433 278.509 31.0445 279.661C32.6456 280.813 33.8221 282.421 34.404 284.254C34.9859 286.087 34.9432 288.048 34.282 289.856C33.6208 291.664 32.3754 293.224 30.7255 294.312C29.0756 295.4 27.1067 295.958 25.1029 295.907C23.0992 295.855 21.1643 295.197 19.5777 294.027C17.991 292.857 16.8348 291.235 16.2758 289.396C15.7168 287.557 15.784 285.595 16.4677 283.795V283.795Z" fill="#57B894"/>
<path d="M16.9867 282.199C17.5269 280.775 18.4335 279.504 19.6229 278.503C20.8124 277.502 22.2465 276.803 23.7931 276.47L24.5717 280.891L26.0152 276.248C28.0194 276.276 29.9624 276.912 31.5635 278.065C33.1646 279.217 34.3411 280.825 34.923 282.658C35.5049 284.49 35.4622 286.452 34.8011 288.26C34.1399 290.068 32.8944 291.628 31.2445 292.716C29.5947 293.803 27.6257 294.362 25.6219 294.31C23.6182 294.259 21.6833 293.601 20.0967 292.431C18.5101 291.26 17.3538 289.638 16.7948 287.799C16.2358 285.96 16.303 283.999 16.9867 282.199V282.199Z" stroke="#3F3D56" stroke-miterlimit="10"/>
<path d="M23.5526 331.552C25.7354 332.309 28.1333 332.271 30.2891 331.447C32.445 330.623 34.2081 329.07 35.2424 327.084C36.2766 325.098 36.5098 322.818 35.8973 320.678C35.2849 318.538 33.8697 316.688 31.9215 315.481L30.8123 319.049L30.0258 314.576C30.018 314.573 30.01 314.57 30.0017 314.568C28.8342 314.162 27.5944 313.98 26.3532 314.032C25.112 314.085 23.8938 314.37 22.7682 314.873C21.6426 315.375 20.6317 316.084 19.7931 316.96C18.9546 317.836 18.3049 318.861 17.8813 319.977C17.4576 321.093 17.2682 322.277 17.324 323.463C17.3797 324.649 17.6795 325.812 18.2062 326.887C18.7329 327.962 19.4762 328.928 20.3935 329.728C21.3109 330.529 22.3844 331.148 23.5526 331.552V331.552Z" fill="#57B894"/>
<path d="M24.0025 329.935C26.1853 330.692 28.5832 330.655 30.739 329.831C32.8949 329.007 34.658 327.453 35.6923 325.467C36.7265 323.481 36.9597 321.201 36.3472 319.061C35.7348 316.921 34.3196 315.071 32.3714 313.864L31.2622 317.432L30.4757 312.959C30.4679 312.956 30.4599 312.953 30.4516 312.951C29.2843 312.546 28.045 312.365 26.8045 312.418C25.564 312.471 24.3465 312.757 23.2217 313.26C20.95 314.275 19.1933 316.11 18.338 318.362C17.4828 320.615 17.5992 323.099 18.6615 325.27C19.7237 327.44 21.645 329.118 24.0025 329.935V329.935Z" stroke="#3F3D56" stroke-miterlimit="10"/>
<path d="M13.708 346.556C14.0833 348.596 15.1815 350.451 16.8185 351.809C18.4554 353.168 20.5315 353.947 22.6986 354.017C24.8657 354.087 26.992 353.443 28.7209 352.192C30.4498 350.942 31.6761 349.162 32.1943 347.15C32.7124 345.139 32.4908 343.018 31.5667 341.144C30.6425 339.27 29.072 337.757 27.1185 336.858C25.1651 335.959 22.9474 335.729 20.8375 336.206C18.7276 336.684 16.8538 337.84 15.5303 339.481L19.7434 345.539L13.9867 342.324C13.5403 343.693 13.4447 345.144 13.708 346.556V346.556Z" fill="#57B894"/>
<path d="M14.0974 345.358C14.4727 347.399 15.571 349.254 17.2079 350.612C18.8448 351.971 20.9209 352.75 23.088 352.82C25.2551 352.89 27.3814 352.245 29.1103 350.995C30.8392 349.745 32.0655 347.965 32.5837 345.953C33.1018 343.942 32.8802 341.821 31.9561 339.947C31.0319 338.073 29.4614 336.559 27.5079 335.66C25.5545 334.761 23.3368 334.531 21.2269 335.009C19.117 335.487 17.2432 336.643 15.9197 338.284L20.1328 344.342L14.3761 341.127C13.9297 342.496 13.8341 343.947 14.0974 345.358V345.358Z" stroke="#3F3D56" stroke-miterlimit="10"/>
<path d="M332.6 225.374C339.093 225.374 344.357 218.866 344.357 210.839C344.357 202.811 339.093 196.303 332.6 196.303C326.107 196.303 320.844 202.811 320.844 210.839C320.844 218.866 326.107 225.374 332.6 225.374Z" fill="#2F2E41"/>
<path d="M396.569 225.704C403.062 225.704 408.325 219.197 408.325 211.169C408.325 203.141 403.062 196.634 396.569 196.634C390.076 196.634 384.812 203.141 384.812 211.169C384.812 219.197 390.076 225.704 396.569 225.704Z" fill="#2F2E41"/>
<path d="M387.579 254.115C387.579 260.682 377.98 266.007 366.141 266.007C354.301 266.007 344.702 260.682 344.702 254.115C344.702 248.426 351.901 243.669 361.521 242.506C363.052 242.313 364.596 242.218 366.141 242.222C368.729 242.214 371.31 242.48 373.838 243.015C381.873 244.726 387.579 249.054 387.579 254.115Z" fill="#2F2E41"/>
<path d="M335.366 222.071C341.859 222.071 347.123 215.563 347.123 207.535C347.123 199.508 341.859 193 335.366 193C328.873 193 323.61 199.508 323.61 207.535C323.61 215.563 328.873 222.071 335.366 222.071Z" stroke="#3F3D56" stroke-miterlimit="10"/>
<path d="M399.335 222.401C405.828 222.401 411.091 215.893 411.091 207.866C411.091 199.838 405.828 193.33 399.335 193.33C392.842 193.33 387.579 199.838 387.579 207.866C387.579 215.893 392.842 222.401 399.335 222.401Z" stroke="#3F3D56" stroke-miterlimit="10"/>
<path d="M368.907 262.704C380.747 262.704 390.345 257.379 390.345 250.811C390.345 244.243 380.747 238.918 368.907 238.918C357.067 238.918 347.469 244.243 347.469 250.811C347.469 257.379 357.067 262.704 368.907 262.704Z" stroke="#3F3D56" stroke-miterlimit="10"/>
<path d="M374.093 244.006C374.099 244.837 373.772 245.638 373.18 246.247C372.901 246.539 372.561 246.772 372.183 246.932C371.804 247.092 371.395 247.175 370.981 247.177H364.066C363.214 247.149 362.408 246.799 361.825 246.205C361.242 245.611 360.928 244.82 360.954 244.006C360.95 243.362 361.148 242.731 361.521 242.195C363.051 241.989 364.595 241.888 366.14 241.892C368.732 241.883 371.316 242.167 373.837 242.737C374.008 243.14 374.095 243.571 374.093 244.006V244.006Z" fill="white"/>
<path d="M335.366 206.875C337.276 206.875 338.824 205.396 338.824 203.571C338.824 201.747 337.276 200.268 335.366 200.268C333.457 200.268 331.908 201.747 331.908 203.571C331.908 205.396 333.457 206.875 335.366 206.875Z" fill="white"/>
<path d="M399.681 206.875C401.591 206.875 403.139 205.396 403.139 203.571C403.139 201.747 401.591 200.268 399.681 200.268C397.771 200.268 396.223 201.747 396.223 203.571C396.223 205.396 397.771 206.875 399.681 206.875Z" fill="white"/>
<path opacity="0.3" d="M403.138 237.928C405.048 237.928 406.596 236.448 406.596 234.624C406.596 232.8 405.048 231.321 403.138 231.321C401.229 231.321 399.681 232.8 399.681 234.624C399.681 236.448 401.229 237.928 403.138 237.928Z" fill="#0096C7"/>
<path opacity="0.3" d="M318.769 237.928C320.679 237.928 322.227 236.448 322.227 234.624C322.227 232.8 320.679 231.321 318.769 231.321C316.859 231.321 315.311 232.8 315.311 234.624C315.311 236.448 316.859 237.928 318.769 237.928Z" fill="#0096C7"/>
</g>
<defs>
<clipPath id="clip0">
<rect width="743" height="386" fill="white"/>
</clipPath>
</defs>
</svg>
