<svg width="236" height="102" viewBox="0 0 236 102" fill="none" xmlns="http://www.w3.org/2000/svg">
<path d="M18 23.7H6.5V40.1C6.5 40.8667 5.83333 41.25 4.5 41.25C3.16667 41.25 2.5 40.8667 2.5 40.1V12.8C2.5 9.7 3.1 7.46667 4.3 6.1C5.5 4.7 7.53333 4 10.4 4H20C20.6667 4 21 4.58333 21 5.75C21 6.91667 20.6667 7.5 20 7.5H10.4C8.96667 7.5 7.95 7.9 7.35 8.7C6.78333 9.5 6.5 10.8667 6.5 12.8V20.2H18C18.6667 20.2 19 20.7833 19 21.95C19 23.1167 18.6667 23.7 18 23.7ZM35.0117 11.9V35.15C35.0117 36.2167 35.2617 37.2167 35.7617 38.15C36.2617 39.05 36.5117 39.5167 36.5117 39.55C36.5117 39.95 36.1951 40.3833 35.5617 40.85C34.9284 41.2833 34.3951 41.5 33.9617 41.5C33.2617 41.5 32.5951 40.9 31.9617 39.7C31.3284 38.4667 31.0117 37.1167 31.0117 35.65V11.9C31.0117 11.1333 31.6784 10.75 33.0117 10.75C34.3451 10.75 35.0117 11.1333 35.0117 11.9ZM35.1617 1.25V5.6C35.1617 6.43333 34.4284 6.85 32.9617 6.85C31.5284 6.85 30.8117 6.43333 30.8117 5.6V1.25C30.8117 0.416665 31.5284 -2.6226e-06 32.9617 -2.6226e-06C34.4284 -2.6226e-06 35.1617 0.416665 35.1617 1.25ZM71.652 18.15V40.1C71.652 40.8667 70.9853 41.25 69.652 41.25C68.3186 41.25 67.652 40.8667 67.652 40.1V17.65C67.652 15.05 65.3686 13.75 60.802 13.75C56.2686 13.75 54.002 15.05 54.002 17.65V40.1C54.002 40.8667 53.3353 41.25 52.002 41.25C50.6686 41.25 50.002 40.8667 50.002 40.1V18.15C50.002 15.3833 50.9853 13.3833 52.952 12.15C54.9186 10.8833 57.5353 10.25 60.802 10.25C64.0686 10.25 66.6853 10.8833 68.652 12.15C70.652 13.3833 71.652 15.3833 71.652 18.15ZM107.818 2.15V33.85C107.818 36.6167 106.835 38.6333 104.868 39.9C102.901 41.1333 100.285 41.75 97.018 41.75C93.7513 41.75 91.118 41.1333 89.118 39.9C87.1513 38.6333 86.168 36.6167 86.168 33.85V18.9C86.168 16.1333 87.1513 14.1333 89.118 12.9C91.0846 11.6333 93.7013 11 96.968 11H101.318C101.985 11 102.318 11.5833 102.318 12.75C102.318 13.9167 101.985 14.5 101.318 14.5H96.968C92.4346 14.5 90.168 15.8 90.168 18.4V34.35C90.168 36.95 92.4346 38.25 96.968 38.25C101.535 38.25 103.818 36.95 103.818 34.35V2.15C103.818 1.38333 104.485 0.999999 105.818 0.999999C107.151 0.999999 107.818 1.38333 107.818 2.15ZM133.547 41.25H130.197C127.33 41.25 125.297 40.5667 124.097 39.2C122.897 37.8 122.297 35.55 122.297 32.45V11.15C122.297 8.38333 123.297 6.38333 125.297 5.15C127.297 3.88333 129.964 3.25 133.297 3.25C136.63 3.25 139.28 3.88333 141.247 5.15C143.214 6.38333 144.197 8.38333 144.197 11.15V15.8C144.197 19.0667 142.897 21.1 140.297 21.9C143.23 22.6 144.697 24.6667 144.697 28.1V33.35C144.697 36.1167 143.68 38.1333 141.647 39.4C139.614 40.6333 136.914 41.25 133.547 41.25ZM135.297 23.7H129.047C128.38 23.7 128.047 23.1167 128.047 21.95C128.047 20.7833 128.38 20.2 129.047 20.2H134.797C138.397 20.2 140.197 18.7333 140.197 15.8V10.65C140.197 8.05 137.88 6.75 133.247 6.75C128.614 6.75 126.297 8.05 126.297 10.65V32.45C126.297 34.3833 126.58 35.75 127.147 36.55C127.747 37.35 128.764 37.75 130.197 37.75H133.447C138.28 37.75 140.697 36.45 140.697 33.85V28.1C140.697 25.1667 138.897 23.7 135.297 23.7ZM162.193 2.15V35.15C162.193 36.2167 162.443 37.2167 162.943 38.15C163.443 39.05 163.693 39.5167 163.693 39.55C163.693 39.95 163.377 40.3833 162.743 40.85C162.11 41.2833 161.577 41.5 161.143 41.5C160.443 41.5 159.777 40.9 159.143 39.7C158.51 38.4667 158.193 37.1167 158.193 35.65V2.15C158.193 1.38333 158.86 0.999999 160.193 0.999999C161.527 0.999999 162.193 1.38333 162.193 2.15ZM198.834 11.9V33.85C198.834 36.6167 197.834 38.6333 195.834 39.9C193.867 41.1333 191.25 41.75 187.984 41.75C184.717 41.75 182.1 41.1333 180.134 39.9C178.167 38.6333 177.184 36.6167 177.184 33.85V11.9C177.184 11.1333 177.85 10.75 179.184 10.75C180.517 10.75 181.184 11.1333 181.184 11.9V34.35C181.184 36.95 183.45 38.25 187.984 38.25C192.55 38.25 194.834 36.95 194.834 34.35V11.9C194.834 11.1333 195.5 10.75 196.834 10.75C198.167 10.75 198.834 11.1333 198.834 11.9ZM235.25 18.05V19.55C235.25 22.3833 234.666 24.3333 233.5 25.4C232.333 26.4667 230.2 27.15 227.1 27.45L217.35 28.4V34.35C217.35 36.95 219.516 38.25 223.85 38.25C228.783 38.25 231.25 37.1167 231.25 34.85V32.95C231.25 32.1833 231.916 31.8 233.25 31.8C234.583 31.8 235.25 32.1833 235.25 32.95V34.35C235.25 39.2833 231.583 41.75 224.25 41.75C221.016 41.75 218.383 41.1167 216.35 39.85C214.35 38.5833 213.35 36.5833 213.35 33.85V18.15C213.35 15.3833 214.416 13.3833 216.55 12.15C218.683 10.8833 221.466 10.25 224.9 10.25C228.333 10.25 230.916 10.85 232.65 12.05C234.383 13.25 235.25 15.25 235.25 18.05ZM217.35 17.65V24.9L226.75 23.95C228.65 23.75 229.866 23.35 230.4 22.75C230.966 22.15 231.25 21.0833 231.25 19.55V17.65C231.25 15.05 228.933 13.75 224.3 13.75C219.666 13.75 217.35 15.05 217.35 17.65ZM5.16 81.1H8.118C11.2007 81.1 12.742 80.216 12.742 78.448V72.362C12.742 70.594 11.1893 69.71 8.084 69.71C5.00133 69.71 3.46 70.594 3.46 72.362V92.388C3.46 92.9093 3.00667 93.17 2.1 93.17C1.19333 93.17 0.74 92.9093 0.74 92.388V72.702C0.74 70.8207 1.40867 69.4607 2.746 68.622C4.08333 67.7607 5.86267 67.33 8.084 67.33C10.3053 67.33 12.0847 67.7607 13.422 68.622C14.782 69.4607 15.462 70.8207 15.462 72.702V78.108C15.462 79.9893 14.7933 81.3607 13.456 82.222C12.1187 83.0607 10.3393 83.48 8.118 83.48H5.16C4.70667 83.48 4.48 83.0833 4.48 82.29C4.48 81.4967 4.70667 81.1 5.16 81.1ZM32.9136 93H28.9356C26.9409 93 25.5016 92.592 24.6176 91.776C23.7336 90.96 23.2916 89.5773 23.2916 87.628V87.356C23.2916 85.4293 23.6882 84.1033 24.4816 83.378C25.2749 82.6527 26.6916 82.188 28.7316 81.984L34.6136 81.406V77.632C34.6136 75.864 33.0722 74.98 29.9896 74.98H25.3316C24.8782 74.98 24.6516 74.5833 24.6516 73.79C24.6516 72.9967 24.8782 72.6 25.3316 72.6H29.9896C32.2109 72.6 33.9902 73.0307 35.3276 73.892C36.6649 74.7307 37.3336 76.0907 37.3336 77.972V88.002C37.3336 89.4753 37.5942 90.6427 38.1156 91.504C38.2742 91.776 38.3536 91.946 38.3536 92.014C38.3536 92.286 38.1382 92.5807 37.7076 92.898C37.2769 93.1927 36.9142 93.34 36.6196 93.34C36.1209 93.34 35.6562 92.8753 35.2256 91.946C34.8176 90.994 34.6136 89.7927 34.6136 88.342V83.786L28.9356 84.364C27.7116 84.5 26.9182 84.772 26.5556 85.18C26.1929 85.588 26.0116 86.3133 26.0116 87.356V87.628C26.0116 88.716 26.1929 89.4867 26.5556 89.94C26.9409 90.3933 27.7342 90.62 28.9356 90.62H32.9136C33.3669 90.62 33.5936 91.0167 33.5936 91.81C33.5936 92.6033 33.3669 93 32.9136 93ZM49.8979 77.122V88.478C49.8979 90.246 51.3486 91.13 54.2499 91.13C57.1512 91.13 58.6019 90.246 58.6019 88.478V87.05C58.6019 86.5287 59.0552 86.268 59.9619 86.268C60.8686 86.268 61.3219 86.5287 61.3219 87.05V88.138C61.3219 90.0193 60.6759 91.3907 59.3839 92.252C58.1146 93.0907 56.4032 93.51 54.2499 93.51C52.1192 93.51 50.4079 93.0907 49.1159 92.252C47.8239 91.3907 47.1779 90.0193 47.1779 88.138V77.462C47.1779 75.5807 47.8239 74.2207 49.1159 73.382C50.4079 72.5207 52.1192 72.09 54.2499 72.09C56.4032 72.09 58.1146 72.5207 59.3839 73.382C60.6759 74.2207 61.3219 75.5807 61.3219 77.462V78.55C61.3219 79.0713 60.8686 79.332 59.9619 79.332C59.0552 79.332 58.6019 79.0713 58.6019 78.55V77.122C58.6019 75.354 57.1512 74.47 54.2499 74.47C51.3486 74.47 49.8979 75.354 49.8979 77.122ZM73.2118 66.582V92.388C73.2118 92.9093 72.7585 93.17 71.8518 93.17C70.9451 93.17 70.4918 92.9093 70.4918 92.388V66.582C70.4918 66.0607 70.9451 65.8 71.8518 65.8C72.7585 65.8 73.2118 66.0607 73.2118 66.582ZM85.0438 92.558C85.0438 92.966 84.6471 93.17 83.8538 93.17C83.0605 93.17 82.5845 92.9093 82.4258 92.388L80.4198 85.486C80.1931 84.6927 79.8985 84.194 79.5358 83.99C79.1958 83.7633 78.4138 83.65 77.1898 83.65H75.0478C74.5945 83.65 74.3678 83.2533 74.3678 82.46C74.3678 81.6667 74.5945 81.27 75.0478 81.27H76.3398C77.2918 81.2473 77.9151 81.134 78.2098 80.93C78.5045 80.7033 78.7878 80.2047 79.0598 79.434L81.3378 73.212C81.5191 72.6907 81.9951 72.43 82.7658 72.43C83.5591 72.43 83.9558 72.634 83.9558 73.042C83.9558 73.0647 83.8425 73.416 83.6158 74.096L81.4058 80.386C81.2018 80.9527 80.9185 81.3833 80.5558 81.678C81.5985 82.0633 82.3351 83.0153 82.7658 84.534L84.8058 91.64C84.9645 92.2293 85.0438 92.5353 85.0438 92.558ZM108.047 77.972V88.92C108.047 89.4413 107.594 89.702 106.687 89.702C105.78 89.702 105.327 89.4413 105.327 88.92V77.632C105.327 75.9547 103.91 75.0707 101.077 74.98H100.703C97.5976 74.98 96.0449 75.864 96.0449 77.632V87.016C96.0449 88.3307 96.2376 89.26 96.6229 89.804C97.0309 90.348 97.7223 90.62 98.6969 90.62H101.383C103.536 90.62 105.18 91.0393 106.313 91.878C107.469 92.7167 108.047 94.088 108.047 95.992V96.128C108.047 98.032 107.469 99.4033 106.313 100.242C105.18 101.081 103.536 101.5 101.383 101.5H93.6649C93.2116 101.5 92.9849 101.103 92.9849 100.31C92.9849 99.5167 93.2116 99.12 93.6649 99.12H101.383C102.72 99.12 103.706 98.916 104.341 98.508C104.998 98.1 105.327 97.42 105.327 96.468V95.652C105.327 94.7 104.998 94.02 104.341 93.612C103.706 93.204 102.72 93 101.383 93H98.6969C96.7476 93 95.3649 92.5353 94.5489 91.606C93.7329 90.654 93.3249 89.124 93.3249 87.016V77.972C93.3249 76.0907 93.9936 74.7307 95.3309 73.892C96.6909 73.0307 98.4816 72.6 100.703 72.6H105.463C106.936 72.6 108.104 72.3507 108.965 71.852C109.237 71.6707 109.407 71.58 109.475 71.58C109.747 71.58 110.03 71.7953 110.325 72.226C110.642 72.6567 110.801 73.0193 110.801 73.314C110.801 73.722 110.461 74.0733 109.781 74.368C109.124 74.6627 108.24 74.8553 107.129 74.946C107.741 75.7847 108.047 76.7933 108.047 77.972ZM132.785 77.394V78.414C132.785 80.3407 132.388 81.6667 131.595 82.392C130.801 83.1173 129.351 83.582 127.243 83.786L120.613 84.432V88.478C120.613 90.246 122.086 91.13 125.033 91.13C128.387 91.13 130.065 90.3593 130.065 88.818V87.526C130.065 87.0047 130.518 86.744 131.425 86.744C132.331 86.744 132.785 87.0047 132.785 87.526V88.478C132.785 91.8327 130.291 93.51 125.305 93.51C123.106 93.51 121.315 93.0793 119.933 92.218C118.573 91.3567 117.893 89.9967 117.893 88.138V77.462C117.893 75.5807 118.618 74.2207 120.069 73.382C121.519 72.5207 123.412 72.09 125.747 72.09C128.081 72.09 129.838 72.498 131.017 73.314C132.195 74.13 132.785 75.49 132.785 77.394ZM120.613 77.122V82.052L127.005 81.406C128.297 81.27 129.124 80.998 129.487 80.59C129.872 80.182 130.065 79.4567 130.065 78.414V77.122C130.065 75.354 128.489 74.47 125.339 74.47C122.188 74.47 120.613 75.354 120.613 77.122Z" fill="#2357BB"/>
</svg>
