<svg width="557" height="571" viewBox="0 0 557 571" fill="none" xmlns="http://www.w3.org/2000/svg">
<path fill-rule="evenodd" clip-rule="evenodd" d="M279.081 0.256864C346.617 -2.14935 419.817 12.0381 467.211 56.0207C512.329 97.8918 502.034 164.644 517.617 221.625C531.755 273.32 567.228 322.02 554.16 373.949C540.575 427.93 494.56 468.908 446.79 503.061C397.478 538.316 341.519 575.174 279.081 570.616C217.998 566.157 177.814 514.663 129.791 479.921C84.2635 446.985 25.1388 423.427 6.29042 373.271C-12.6567 322.851 15.7311 270.275 31.7446 219.015C48.4622 165.502 57.5447 107.78 101.327 69.0566C148.705 27.1523 213.158 2.60558 279.081 0.256864Z" fill="#5390D9" fill-opacity="0.2"/>
<path d="M114.429 428.258L122.597 430.66L135.292 398.659L123.238 395.114L114.429 428.258Z" fill="#FFB8B8"/>
<path d="M136.229 443.272L110.558 435.722L113.331 425.288L130.076 430.213C132.443 430.909 134.451 432.566 135.657 434.819C136.862 437.073 137.168 439.737 136.506 442.228L136.229 443.272Z" fill="#2F2E41"/>
<path d="M211.859 434.987L220.34 434.986L224.373 400.571L211.856 400.572L211.859 434.987Z" fill="#FFB8B8"/>
<path d="M236.697 443.27L210.042 443.272L210.041 432.438L227.428 432.436C228.646 432.436 229.851 432.688 230.975 433.178C232.1 433.668 233.121 434.386 233.982 435.291C234.843 436.196 235.525 437.271 235.991 438.454C236.457 439.637 236.697 440.905 236.697 442.185L236.697 443.27Z" fill="#2F2E41"/>
<path d="M148.835 292.108L129.315 342.418L209.025 361.257L210.042 333.11L173.847 292.551L148.835 292.108Z" fill="#B3B3B3"/>
<path d="M192.083 213.735C200.913 208.657 204.158 197.01 199.331 187.721C194.505 178.432 183.434 175.018 174.604 180.096C165.774 185.174 162.529 196.821 167.356 206.11C172.183 215.4 183.253 218.813 192.083 213.735Z" fill="#FFB8B8"/>
<path d="M196.363 289.324L160.283 273.786L157.071 251.503C156.125 244.989 157.602 238.343 161.195 232.946C164.788 227.549 170.221 223.817 176.363 222.527L181.135 221.518C185.055 220.693 189.108 220.886 192.941 222.082C196.775 223.278 200.272 225.441 203.131 228.382C205.931 231.196 208.025 234.697 209.225 238.57C210.426 242.443 210.696 246.569 210.012 250.579C209.473 254.015 208.148 257.262 206.152 260.04C194.818 275.633 196.273 288.596 196.289 288.725L196.363 289.324Z" fill="#0096C7"/>
<path d="M211.054 347.438L192.972 317.184L198.667 262.152L190.8 220.994L191.218 221.005C195.794 221.124 200.151 223.09 203.387 226.496C206.623 229.901 208.49 234.486 208.601 239.3L216.254 279.632L211.054 347.438Z" fill="#2F2E41"/>
<path d="M211.467 428.481C210.705 428.48 209.966 428.202 209.377 427.694C208.788 427.185 208.383 426.478 208.233 425.692L200.311 384.25C198.864 376.658 196.14 369.398 192.266 362.814L169.913 324.773C169.802 324.584 169.643 324.431 169.454 324.33C169.266 324.23 169.054 324.186 168.843 324.204C168.633 324.222 168.43 324.3 168.259 324.431C168.088 324.562 167.955 324.739 167.873 324.945L131.124 417.821C130.828 418.564 130.297 419.176 129.621 419.553C128.945 419.93 128.166 420.049 127.416 419.889L117.599 417.784C116.758 417.607 116.016 417.092 115.531 416.347C115.046 415.603 114.857 414.689 115.004 413.8L123.013 364.146C124.646 354.025 127.43 344.147 131.304 334.725L158.426 268.779L198.453 282.609L201.094 312.095L219.588 359.207C220.866 362.461 221.63 365.912 221.85 369.425L225.267 423.875C225.32 424.783 225.033 425.678 224.468 426.368C223.903 427.057 223.104 427.487 222.242 427.565L211.739 428.469C211.648 428.477 211.557 428.481 211.467 428.481Z" fill="#2F2E41"/>
<path d="M138.449 360.93L125.76 348.258L149.741 250.971C151.262 244.854 154.115 239.193 158.074 234.436C162.032 229.678 166.988 225.954 172.549 223.558L173.02 223.356L171.739 282.567L138.449 360.93Z" fill="#2F2E41"/>
<path d="M179.097 216.016C174.596 211.917 173.227 204.27 175.985 198.633C178.743 192.995 185.339 189.961 190.978 191.734C196.289 193.404 202.327 187.833 201.68 181.86C201.033 175.886 193.97 171.995 189.161 174.963C185.519 173.425 181.533 173.027 177.681 173.816C173.829 174.605 170.275 176.548 167.448 179.412C161.798 185.235 159.655 194.754 162.191 202.759C164.728 210.763 171.808 216.823 179.097 216.016Z" fill="#2F2E41"/>
<path d="M163.158 371.808C162.936 371.898 162.704 371.961 162.468 371.995L133.498 376.25C132.797 376.355 132.083 376.207 131.473 375.829C130.863 375.451 130.393 374.865 130.142 374.169L105.205 305.904C105.043 305.462 104.974 304.989 105.002 304.516C105.031 304.044 105.155 303.583 105.368 303.166C105.581 302.749 105.876 302.384 106.235 302.098C106.593 301.812 107.006 301.61 107.445 301.507L107.446 301.507L134.69 295.111C134.9 295.062 135.103 294.983 135.294 294.879L161.793 280.303C161.998 280.19 162.214 280.102 162.437 280.039L191.599 271.861C192.346 271.65 193.141 271.737 193.829 272.107C194.518 272.477 195.052 273.102 195.328 273.862L217.072 333.384C217.263 333.903 217.325 334.464 217.253 335.015C217.182 335.566 216.978 336.089 216.661 336.534L209.141 347.157C208.787 347.657 208.306 348.041 207.753 348.265L191.319 354.909C191.201 354.957 191.087 355.014 190.977 355.08L163.593 371.591C163.453 371.675 163.308 371.748 163.158 371.808Z" fill="white"/>
<path d="M176.637 280.961L172.934 282L163.12 284.753L163.103 284.758L149.667 292.148L144.681 294.891L144.679 294.892L137.191 299.011L136.985 299.06L129.206 300.885L125.446 301.769L110.112 305.369L134.185 371.269L149.987 368.949L153.862 368.38L162.12 367.165L162.216 367.152L188.753 351.152L204.899 344.624L212.27 334.21L191.315 276.845L176.637 280.961Z" fill="#E6E6E6"/>
<path d="M194.767 286.296L114.935 318.572L116.302 322.315L196.134 290.038L194.767 286.296Z" fill="white"/>
<path d="M199.324 298.771L119.492 331.047L120.859 334.79L200.691 302.513L199.324 298.771Z" fill="white"/>
<path d="M208.53 323.97L128.697 356.247L130.064 359.99L209.897 327.713L208.53 323.97Z" fill="white"/>
<path d="M176.637 280.961L200.537 346.387L196.98 347.825L172.933 282L176.637 280.961Z" fill="white"/>
<path d="M149.667 292.148L144.76 306.514L143.058 311.497L139.088 323.125L138.238 325.61L137.387 328.108L136.266 331.387L128.221 354.942L126.129 349.216L132.689 330.008L134.173 325.659L134.391 325.024L136.146 319.882L138.36 313.397L140.062 308.413L144.679 294.892L144.681 294.892L149.667 292.148Z" fill="white"/>
<path opacity="0.1" d="M189.331 350.918L188.752 351.152L162.216 367.153L162.12 367.165L136.985 299.059L137.19 299.011L144.679 294.892L144.681 294.892L149.667 292.148L163.103 284.757L163.12 284.753L189.331 350.918Z" fill="black"/>
<path d="M163.278 372.136C163.032 372.236 162.776 372.305 162.515 372.343L133.544 376.598C132.768 376.715 131.978 376.55 131.303 376.132C130.628 375.713 130.109 375.065 129.83 374.295L104.893 306.03C104.715 305.541 104.638 305.017 104.669 304.494C104.701 303.971 104.838 303.462 105.074 303C105.309 302.538 105.636 302.135 106.033 301.818C106.43 301.502 106.887 301.279 107.373 301.165L134.617 294.769C134.799 294.725 134.974 294.658 135.14 294.567L161.638 279.992C161.865 279.867 162.104 279.769 162.351 279.7L191.513 271.521C192.34 271.288 193.219 271.385 193.981 271.794C194.744 272.203 195.335 272.895 195.64 273.736L217.384 333.258C217.595 333.832 217.664 334.453 217.584 335.063C217.505 335.673 217.279 336.251 216.928 336.744L209.409 347.367C209.017 347.92 208.485 348.345 207.872 348.592L191.439 355.237C191.337 355.278 191.238 355.327 191.143 355.384L163.759 371.896C163.605 371.989 163.444 372.069 163.278 372.136ZM107.363 302.631C106.836 302.844 106.411 303.269 106.182 303.812C105.952 304.355 105.937 304.972 106.14 305.526L131.077 373.791C131.248 374.265 131.567 374.663 131.982 374.92C132.397 375.177 132.883 375.278 133.359 375.207L162.33 370.952C162.599 370.912 162.859 370.819 163.095 370.677L190.48 354.165C190.633 354.073 190.794 353.992 190.96 353.925L207.393 347.281C207.77 347.129 208.097 346.868 208.338 346.528L215.857 335.905C216.073 335.602 216.212 335.246 216.261 334.872C216.31 334.497 216.267 334.115 216.137 333.762L194.394 274.24C194.206 273.723 193.843 273.298 193.374 273.046C192.906 272.795 192.365 272.735 191.857 272.878L162.695 281.057C162.543 281.1 162.397 281.16 162.257 281.236L135.758 295.812C135.489 295.959 135.204 296.069 134.908 296.139L107.664 302.536C107.561 302.559 107.461 302.591 107.363 302.631Z" fill="#E6E6E6"/>
<path d="M129.206 300.885L153.861 368.38L149.987 368.949L125.446 301.769L129.206 300.885Z" fill="white"/>
<path d="M136.297 328.129C137.279 328.129 138.076 327.291 138.076 326.258C138.076 325.224 137.279 324.387 136.297 324.387C135.315 324.387 134.519 325.224 134.519 326.258C134.519 327.291 135.315 328.129 136.297 328.129Z" fill="#3F3D56"/>
<path d="M199.356 330.123C200.338 330.123 201.134 329.285 201.134 328.252C201.134 327.219 200.338 326.381 199.356 326.381C198.374 326.381 197.577 327.219 197.577 328.252C197.577 329.285 198.374 330.123 199.356 330.123Z" fill="#0096C7"/>
<path d="M200.076 294.458C202.094 299.984 199.665 318.295 198.811 324.173C198.784 324.359 198.711 324.535 198.598 324.682C198.486 324.829 198.339 324.942 198.172 325.009C198.004 325.077 197.823 325.097 197.646 325.067C197.469 325.037 197.303 324.958 197.164 324.839C192.788 321.076 179.327 309.188 177.309 303.663C176.734 302.09 176.46 300.414 176.501 298.73C176.542 297.045 176.899 295.386 177.549 293.847C178.2 292.307 179.133 290.918 180.294 289.757C181.456 288.597 182.823 287.689 184.318 287.084C185.812 286.48 187.406 286.191 189.007 286.235C190.608 286.278 192.185 286.653 193.648 287.338C195.112 288.022 196.432 289.004 197.535 290.225C198.638 291.447 199.501 292.885 200.076 294.458V294.458Z" fill="#0096C7"/>
<path d="M188.692 306.01C192.341 306.01 195.298 302.899 195.298 299.06C195.298 295.222 192.341 292.111 188.692 292.111C185.044 292.111 182.087 295.222 182.087 299.06C182.087 302.899 185.044 306.01 188.692 306.01Z" fill="white"/>
<path d="M180.207 284.065C180.475 283.033 180.954 282.075 181.611 281.259C182.269 280.442 183.088 279.788 184.012 279.34C184.936 278.893 185.942 278.665 186.959 278.671C187.976 278.677 188.979 278.918 189.898 279.376L201.69 268.161L209.916 274.038L193.052 289.629C192.218 291.203 190.864 292.399 189.247 292.993C187.631 293.586 185.863 293.535 184.28 292.849C182.697 292.163 181.408 290.89 180.657 289.271C179.907 287.653 179.746 285.8 180.207 284.065Z" fill="#FFB8B8"/>
<path d="M199.208 287.726L189.964 274.528L211.038 260.339L195.934 237.664C194.7 235.811 194.159 233.545 194.414 231.299C194.67 229.052 195.704 226.984 197.319 225.49C198.934 223.997 201.016 223.182 203.166 223.203C205.317 223.224 207.384 224.078 208.973 225.603L227.885 243.756C229.686 245.485 231.084 247.629 231.969 250.019C232.854 252.41 233.203 254.983 232.988 257.539C232.773 260.094 232 262.563 230.729 264.752C229.458 266.942 227.724 268.794 225.662 270.163L199.208 287.726Z" fill="#2F2E41"/>
<path d="M126.786 322.354C127.621 321.744 128.32 320.949 128.831 320.025C129.343 319.1 129.656 318.069 129.749 317.003C129.841 315.938 129.71 314.864 129.364 313.858C129.019 312.851 128.469 311.937 127.751 311.178L133.862 295.739L125.85 289.545L117.511 311.475C116.38 312.827 115.76 314.569 115.768 316.37C115.776 318.171 116.412 319.907 117.555 321.248C118.698 322.589 120.269 323.442 121.971 323.646C123.672 323.85 125.385 323.39 126.786 322.354V322.354Z" fill="#FFB8B8"/>
<path d="M130.914 306.678L116.463 303.138L127.232 270.468C129.088 264.831 131.826 259.56 135.333 254.872L152.901 231.368C154.508 229.218 156.859 227.826 159.44 227.496C162.021 227.166 164.62 227.926 166.669 229.609C168.719 231.292 170.05 233.76 170.373 236.474C170.695 239.188 169.982 241.925 168.39 244.087L148.895 270.558L130.914 306.678Z" fill="#2F2E41"/>
<path d="M307.025 444H52.6676C52.4905 444 52.3207 443.926 52.1955 443.794C52.0703 443.663 52 443.484 52 443.298C52 443.111 52.0703 442.933 52.1955 442.801C52.3207 442.669 52.4905 442.595 52.6676 442.595H307.025C307.202 442.595 307.372 442.669 307.498 442.801C307.623 442.933 307.693 443.111 307.693 443.298C307.693 443.484 307.623 443.663 307.498 443.794C307.372 443.926 307.202 444 307.025 444Z" fill="#CCCCCC"/>
<path d="M405.689 443.649H399.681V73.1606C399.681 72.3223 399.997 71.5184 400.561 70.9257C401.124 70.333 401.888 70 402.685 70C403.482 70 404.246 70.333 404.809 70.9257C405.373 71.5184 405.689 72.3223 405.689 73.1606V443.649Z" fill="white"/>
<path d="M449.225 444H355.761C355.584 444 355.414 443.926 355.289 443.794C355.163 443.663 355.093 443.484 355.093 443.298C355.093 443.111 355.163 442.933 355.289 442.801C355.414 442.669 355.584 442.595 355.761 442.595H449.225C449.403 442.595 449.572 442.669 449.698 442.801C449.823 442.933 449.893 443.111 449.893 443.298C449.893 443.484 449.823 443.663 449.698 443.794C449.572 443.926 449.403 444 449.225 444Z" fill="#CCCCCC"/>
<path d="M447.381 118.462H359.958C359.162 118.461 358.398 118.128 357.835 117.535C357.272 116.943 356.955 116.139 356.954 115.301V88.6122C356.955 87.7743 357.272 86.9709 357.835 86.3784C358.398 85.7859 359.162 85.4526 359.958 85.4516H447.387C447.9 85.452 448.404 85.59 448.851 85.8525L471.46 99.1262C471.926 99.3997 472.314 99.799 472.585 100.283C472.855 100.767 472.999 101.318 473 101.879C473.001 102.44 472.86 102.992 472.591 103.477C472.323 103.962 471.936 104.363 471.471 104.639L448.857 118.055C448.406 118.321 447.898 118.462 447.381 118.462Z" fill="#0096C7"/>
<path d="M439.403 176.054H351.98C351.463 176.054 350.955 175.914 350.505 175.647L327.89 162.231C327.425 161.956 327.039 161.555 326.77 161.07C326.501 160.585 326.36 160.033 326.361 159.471C326.363 158.91 326.506 158.359 326.777 157.875C327.047 157.391 327.436 156.992 327.902 156.719L350.51 143.445C350.957 143.182 351.461 143.044 351.974 143.044H439.403C440.2 143.045 440.963 143.378 441.527 143.971C442.09 144.563 442.407 145.367 442.407 146.205V172.894C442.407 173.732 442.09 174.535 441.527 175.128C440.963 175.72 440.2 176.054 439.403 176.054Z" fill="white"/>
<path d="M439.737 232.593H352.314C351.797 232.593 351.289 232.453 350.839 232.186L328.224 218.77C327.759 218.495 327.372 218.094 327.104 217.609C326.835 217.123 326.694 216.572 326.695 216.01C326.696 215.449 326.84 214.898 327.11 214.414C327.381 213.93 327.769 213.531 328.235 213.258L350.844 199.984C351.291 199.721 351.795 199.583 352.308 199.583H439.737C440.533 199.584 441.297 199.917 441.86 200.51C442.424 201.102 442.74 201.906 442.741 202.744V229.433C442.74 230.271 442.424 231.074 441.86 231.667C441.297 232.259 440.533 232.592 439.737 232.593Z" fill="white"/>
</svg>
