<svg width="501" height="484" viewBox="0 0 501 484" fill="none" xmlns="http://www.w3.org/2000/svg">
<path fill-rule="evenodd" clip-rule="evenodd" d="M248.099 3.1479C292.47 7.55593 339.569 18.18 370.771 57.6428C400.158 94.8102 387.601 157.04 406.538 203.535C431.313 264.362 506.32 300.917 497.242 368.156C488.53 432.69 419.467 454.087 369.79 475.735C330.549 492.835 289.66 478.362 248.099 476.727C208.305 475.162 169.334 483.151 131.877 466.375C82.9477 444.462 17.6271 428.58 2.49006 366.729C-12.6953 304.68 45.7451 253.841 65.1263 193.626C82.6202 139.274 74.1973 69.3527 110.302 31.7668C146.9 -6.33273 200.513 -1.57942 248.099 3.1479Z" fill="#5390D9" fill-opacity="0.2"/>
<path d="M498.24 417.501C498.185 417.666 498.075 417.8 497.933 417.874C497.791 417.947 497.629 417.954 497.482 417.893L29.0408 220.899C28.8947 220.837 28.7762 220.712 28.7114 220.552C28.6466 220.391 28.6408 220.208 28.6952 220.043C28.7496 219.878 28.8599 219.744 29.0018 219.67C29.1436 219.596 29.3055 219.589 29.4519 219.651L497.893 416.645C498.039 416.707 498.158 416.831 498.223 416.992C498.288 417.152 498.294 417.336 498.24 417.501Z" fill="#F2F2F2"/>
<path d="M248.705 43H137.082C128.326 43.0112 119.932 46.9472 113.74 53.9445C107.548 60.9418 104.066 70.429 104.056 80.3247V91.727C103.827 91.6558 103.586 91.6457 103.353 91.6975C103.12 91.7494 102.9 91.8618 102.712 92.0259C102.524 92.1899 102.372 92.4012 102.269 92.6429C102.166 92.8846 102.113 93.1502 102.116 93.4187V102.187C102.113 102.456 102.166 102.721 102.269 102.963C102.372 103.205 102.524 103.416 102.712 103.58C102.9 103.744 103.12 103.857 103.353 103.908C103.586 103.96 103.827 103.95 104.056 103.879V117.156C103.827 117.084 103.586 117.074 103.353 117.126C103.12 117.178 102.9 117.29 102.712 117.454C102.524 117.618 102.372 117.83 102.269 118.071C102.165 118.313 102.113 118.579 102.116 118.847V140.769C102.113 141.037 102.165 141.303 102.269 141.544C102.372 141.786 102.524 141.997 102.712 142.161C102.9 142.326 103.12 142.438 103.353 142.49C103.586 142.542 103.827 142.531 104.056 142.46V150.476C103.827 150.405 103.586 150.394 103.353 150.446C103.12 150.498 102.9 150.611 102.712 150.775C102.524 150.939 102.372 151.15 102.269 151.392C102.165 151.633 102.113 151.899 102.116 152.168V174.089C102.113 174.357 102.165 174.623 102.269 174.865C102.372 175.106 102.524 175.318 102.712 175.482C102.9 175.646 103.12 175.758 103.353 175.81C103.586 175.862 103.827 175.852 104.056 175.78V407.271C104.066 417.167 107.548 426.654 113.74 433.652C119.932 440.649 128.326 444.585 137.082 444.596H248.705C257.461 444.585 265.856 440.649 272.047 433.652C278.239 426.654 281.722 417.167 281.732 407.271V80.3247C281.722 70.429 278.239 60.9418 272.047 53.9445C265.856 46.9472 257.461 43.0112 248.705 43ZM274.749 407.271C274.741 415.075 271.995 422.556 267.112 428.074C262.23 433.592 255.61 436.696 248.705 436.704H137.082C130.178 436.696 123.558 433.592 118.675 428.074C113.793 422.556 111.047 415.075 111.039 407.271V80.3247C111.047 72.5213 113.793 65.04 118.675 59.5221C123.558 54.0043 130.178 50.9005 137.082 50.8916H248.705C255.61 50.9005 262.23 54.0043 267.112 59.5221C271.995 65.04 274.741 72.5212 274.749 80.3247V407.271Z" fill="#3F3D56"/>
<path d="M248.705 441.089H137.082C129.149 441.078 121.543 437.512 115.934 431.173C110.324 424.833 107.168 416.237 107.159 407.271V80.3247C107.168 71.3589 110.324 62.7632 115.934 56.4235C121.543 50.0837 129.149 46.5176 137.082 46.5074H248.705C256.638 46.5176 264.244 50.0837 269.854 56.4235C275.464 62.7632 278.619 71.3589 278.628 80.3247V407.271C278.619 416.237 275.464 424.833 269.854 431.173C264.244 437.512 256.638 441.078 248.705 441.089Z" fill="#E6E6E6"/>
<path d="M251.463 435.828H134.324C128.973 435.821 123.844 433.415 120.06 429.14C116.276 424.864 114.148 419.066 114.142 413.019V74.5768C114.148 68.5298 116.276 62.7324 120.06 58.4565C123.843 54.1806 128.973 51.7753 134.324 51.7685H149.6C150.485 51.7696 151.333 52.1672 151.958 52.8739C152.583 53.5806 152.935 54.5389 152.936 55.5383C152.939 58.4909 153.978 61.3216 155.825 63.4094C157.673 65.4972 160.178 66.6716 162.79 66.6749H221.445C224.058 66.6716 226.563 65.4972 228.41 63.4094C230.257 61.3216 231.297 58.4909 231.3 55.5383C231.301 54.5388 231.652 53.5806 232.278 52.8739C232.903 52.1672 233.751 51.7696 234.635 51.7685H251.463C256.814 51.7753 261.944 54.1805 265.727 58.4564C269.511 62.7323 271.639 68.5297 271.645 74.5768V413.019C271.639 419.066 269.511 424.864 265.727 429.14C261.944 433.415 256.814 435.821 251.463 435.828Z" fill="white"/>
<path d="M197.937 59.4409H183.971C183.56 59.4409 183.165 59.2561 182.874 58.9273C182.583 58.5984 182.419 58.1523 182.419 57.6872C182.419 57.2221 182.583 56.776 182.874 56.4471C183.165 56.1183 183.56 55.9335 183.971 55.9335H197.937C198.349 55.9335 198.743 56.1183 199.034 56.4471C199.325 56.776 199.489 57.2221 199.489 57.6872C199.489 58.1523 199.325 58.5984 199.034 58.9273C198.743 59.2561 198.349 59.4409 197.937 59.4409Z" fill="white"/>
<path d="M207.635 59.0025C208.064 59.0025 208.411 58.6099 208.411 58.1256C208.411 57.6413 208.064 57.2488 207.635 57.2488C207.207 57.2488 206.859 57.6413 206.859 58.1256C206.859 58.6099 207.207 59.0025 207.635 59.0025Z" fill="white"/>
<path d="M275.419 120.269H110.214V122.268H275.419V120.269Z" fill="#E6E6E6"/>
<path d="M275.419 160.236H110.214V162.235H275.419V160.236Z" fill="#E6E6E6"/>
<path d="M275.419 242.835H110.214V244.833H275.419V242.835Z" fill="#E6E6E6"/>
<path d="M275.419 325.433H110.214V327.431H275.419V325.433Z" fill="#E6E6E6"/>
<path d="M275.419 390.046H110.214V392.045H275.419V390.046Z" fill="#E6E6E6"/>
<path d="M230.19 121.269H228.422V243.834H230.19V121.269Z" fill="#E6E6E6"/>
<path d="M147.487 243.798H145.718V391.045H147.487V243.798Z" fill="#E6E6E6"/>
<path d="M271.645 284.189H146.602V286.187H271.645V284.189Z" fill="#E6E6E6"/>
<path d="M230.38 391.045H228.612V435.827H230.38V391.045Z" fill="#E6E6E6"/>
<path d="M229.011 202.354H113.847V204.352H229.011V202.354Z" fill="#E6E6E6"/>
<path d="M137.898 50.5058L136.267 51.2773L162.327 121.654L163.959 120.883L137.898 50.5058Z" fill="#E6E6E6"/>
<path d="M218.16 66.6747H216.392V121.269H218.16V66.6747Z" fill="#E6E6E6"/>
<path d="M263.756 151.577C263.756 169.482 239.26 211.205 232.102 223.016C231.886 223.373 231.596 223.665 231.258 223.867C230.919 224.068 230.542 224.174 230.16 224.174C229.777 224.174 229.4 224.068 229.061 223.867C228.723 223.665 228.433 223.373 228.217 223.016C221.059 211.205 196.563 169.482 196.563 151.577C196.563 141.507 200.103 131.849 206.403 124.729C212.704 117.609 221.249 113.608 230.16 113.608C239.07 113.608 247.615 117.609 253.916 124.729C260.216 131.849 263.756 141.507 263.756 151.577Z" fill="#0096C7"/>
<path d="M230.16 168.23C239.6 168.23 247.253 159.581 247.253 148.912C247.253 138.244 239.6 129.595 230.16 129.595C220.719 129.595 213.067 138.244 213.067 148.912C213.067 159.581 220.719 168.23 230.16 168.23Z" fill="white"/>
<path d="M229.04 244.408L164.307 390.576L165.888 391.47L230.621 245.303L229.04 244.408Z" fill="#E6E6E6"/>
<path d="M322.266 276.56C323.029 277.024 323.873 277.293 324.738 277.348C325.603 277.403 326.469 277.243 327.273 276.88C328.078 276.516 328.802 275.958 329.395 275.244C329.988 274.529 330.435 273.677 330.705 272.746L351.764 272.335L345.582 262.128L326.531 264.083C325.118 263.675 323.621 263.866 322.324 264.621C321.027 265.376 320.021 266.643 319.495 268.181C318.969 269.719 318.961 271.421 319.472 272.966C319.982 274.51 320.977 275.789 322.266 276.56H322.266Z" fill="#FFB8B8"/>
<path d="M334.908 276.263C334.582 276.263 334.259 276.188 333.959 276.043C333.659 275.899 333.388 275.687 333.162 275.42C332.936 275.154 332.761 274.838 332.646 274.493C332.531 274.148 332.479 273.78 332.493 273.411L332.919 262.498C332.942 261.848 333.17 261.229 333.563 260.753C333.955 260.277 334.486 259.977 335.058 259.905L359.454 256.743L358.636 274.929L335.028 276.259C334.988 276.262 334.948 276.263 334.908 276.263Z" fill="#0096C7"/>
<path d="M364.621 425.853L357.752 428.389L345.83 399.652L355.968 395.911L364.621 425.853Z" fill="#FFB8B8"/>
<path d="M368.547 432.731L346.399 440.907L346.308 440.59C345.938 439.311 345.795 437.961 345.886 436.619C345.978 435.277 346.302 433.969 346.841 432.769C347.38 431.569 348.123 430.5 349.028 429.625C349.932 428.749 350.98 428.083 352.112 427.665L352.113 427.665L365.64 422.672L368.547 432.731Z" fill="#2F2E41"/>
<path d="M384.853 437.871L377.627 437.87L374.189 406.371L384.854 406.371L384.853 437.871Z" fill="#FFB8B8"/>
<path d="M386.696 445.787L363.396 445.786V445.453C363.396 444.107 363.63 442.774 364.086 441.531C364.542 440.287 365.21 439.157 366.052 438.206C366.894 437.254 367.894 436.499 368.994 435.984C370.095 435.469 371.274 435.204 372.465 435.204H372.465L386.696 435.205L386.696 445.787Z" fill="#2F2E41"/>
<path d="M373.878 430.204C373.287 430.203 372.717 429.958 372.275 429.515C371.833 429.072 371.55 428.461 371.48 427.798L362.163 339.774L348.525 364.515L364.527 410.728C364.744 411.367 364.743 412.075 364.524 412.712C364.304 413.35 363.881 413.873 363.339 414.177L349.765 421.684C349.455 421.855 349.116 421.95 348.771 421.961C348.427 421.972 348.084 421.899 347.766 421.748C347.448 421.597 347.162 421.371 346.928 421.085C346.694 420.798 346.517 420.459 346.408 420.089L331.365 368.726C330.232 364.86 330.084 360.712 330.938 356.756L340.665 311.646L340.779 311.576L362.704 298.003L362.83 298.055L388.651 308.706L385.949 366.536L387.912 426.559C387.939 427.272 387.716 427.968 387.292 428.497C386.868 429.026 386.277 429.346 385.646 429.386L374.029 430.199C373.978 430.202 373.928 430.204 373.878 430.204Z" fill="#2F2E41"/>
<path d="M359.654 328.787C355.796 328.787 352.546 327.546 350.513 324.389L350.447 324.287L351.763 308.683L340.06 316.024C339.818 316.177 339.54 316.241 339.263 316.209C338.987 316.177 338.727 316.05 338.517 315.845C338.307 315.64 338.157 315.367 338.089 315.063C338.02 314.759 338.036 314.439 338.134 314.145L352.728 270.342L362.365 234.66C362.843 231.804 364.077 229.18 365.904 227.134C367.731 225.089 370.065 223.719 372.596 223.205C381.181 221.423 386.294 224.697 392.198 231.962C393.626 233.729 394.678 235.842 395.273 238.139C395.868 240.436 395.991 242.856 395.632 245.215L390.047 281.292L391.688 313.639C391.813 314.197 391.78 314.785 391.591 315.32C391.403 315.854 391.07 316.308 390.64 316.616C386.075 319.9 372.078 328.786 359.654 328.787Z" fill="#0096C7"/>
<path d="M379.185 217.803C387.18 217.803 393.662 210.478 393.662 201.442C393.662 192.407 387.18 185.082 379.185 185.082C371.19 185.082 364.708 192.407 364.708 201.442C364.708 210.478 371.19 217.803 379.185 217.803Z" fill="#FFB8B8"/>
<path d="M382.956 318.064C383.744 317.656 384.442 317.058 385.003 316.311C385.564 315.565 385.974 314.689 386.202 313.744C386.431 312.8 386.474 311.81 386.328 310.845C386.182 309.88 385.85 308.962 385.356 308.158L397.771 288.929L386.839 288.343L376.725 306.693C375.584 307.72 374.816 309.184 374.566 310.809C374.317 312.433 374.603 314.105 375.371 315.506C376.139 316.908 377.336 317.943 378.733 318.414C380.131 318.885 381.634 318.761 382.956 318.064Z" fill="#FFB8B8"/>
<path d="M389.68 307.214C389.074 307.311 388.458 307.145 387.956 306.75L379.736 300.272C379.242 299.886 378.894 299.305 378.76 298.643C378.626 297.981 378.716 297.286 379.012 296.695L393.645 267.272L378.928 247.251C378.155 246.2 377.584 244.978 377.252 243.664C376.92 242.35 376.833 240.972 376.998 239.618C377.163 238.263 377.575 236.963 378.209 235.799C378.842 234.635 379.684 233.632 380.679 232.856C381.674 232.079 382.802 231.545 383.989 231.288C385.177 231.03 386.399 231.055 387.578 231.361C388.757 231.666 389.867 232.246 390.836 233.062C391.806 233.879 392.615 234.915 393.211 236.104L409.461 268.518C409.576 268.749 409.637 269.009 409.637 269.274C409.636 269.539 409.576 269.8 409.461 270.03L391.439 305.859C391.273 306.189 391.047 306.477 390.777 306.703C390.507 306.929 390.199 307.09 389.871 307.174C389.807 307.19 389.744 307.203 389.68 307.214Z" fill="#0096C7"/>
<path d="M373.399 199.354C371.967 198.145 369.983 198.334 368.285 197.7C367.275 197.323 366.369 196.652 365.66 195.755C364.951 194.857 364.464 193.765 364.246 192.587C364.029 191.41 364.089 190.188 364.421 189.045C364.753 187.902 365.345 186.878 366.137 186.075C367.971 184.218 370.58 183.797 373.023 183.457C376.371 182.992 379.751 182.526 383.108 182.896C386.465 183.266 389.844 184.547 392.297 187.163C395.003 190.046 396.335 194.339 396.344 198.542C396.25 202.764 395.224 206.893 393.36 210.554C392.784 211.945 391.916 213.156 390.83 214.081C389.701 214.923 388.11 215.143 387.022 214.234C386.082 213.448 385.738 212.07 385.314 210.839C384.889 209.607 384.165 208.296 383.007 208.106C381.517 207.861 380.38 209.574 378.958 210.134C376.969 210.918 374.76 209.184 373.948 206.988C373.137 204.791 373.351 202.305 373.578 199.939" fill="#2F2E41"/>
<path d="M465 445.5C465 445.632 464.951 445.759 464.864 445.853C464.777 445.947 464.659 446 464.536 446H71.4635C71.3406 446 71.2227 445.947 71.1358 445.854C71.0488 445.76 71 445.633 71 445.5C71 445.367 71.0488 445.24 71.1358 445.146C71.2227 445.053 71.3406 445 71.4635 445H464.536C464.659 445 464.777 445.053 464.864 445.147C464.951 445.241 465 445.368 465 445.5Z" fill="#CCCCCC"/>
<path d="M230.16 252.16C234.391 252.16 237.822 248.283 237.822 243.501C237.822 238.718 234.391 234.841 230.16 234.841C225.928 234.841 222.497 238.718 222.497 243.501C222.497 248.283 225.928 252.16 230.16 252.16Z" fill="#0096C7"/>
<path d="M338.033 148.82C334.833 153.64 320.783 159.279 316.745 160.825C316.623 160.872 316.493 160.884 316.365 160.861C316.238 160.838 316.118 160.781 316.015 160.693C315.912 160.606 315.829 160.491 315.774 160.36C315.719 160.228 315.693 160.083 315.699 159.938C315.883 155.125 316.746 138.302 319.946 133.482C321.746 130.771 324.425 128.98 327.393 128.501C330.362 128.023 333.377 128.896 335.776 130.93C338.174 132.964 339.759 135.992 340.183 139.347C340.606 142.702 339.833 146.109 338.033 148.82Z" fill="#F2F2F2"/>
<path d="M329.466 146.935C332.643 146.935 335.218 144.024 335.218 140.434C335.218 136.843 332.643 133.933 329.466 133.933C326.289 133.933 323.713 136.843 323.713 140.434C323.713 144.024 326.289 146.935 329.466 146.935Z" fill="white"/>
<path d="M312.561 168.81C313.985 168.81 315.139 167.505 315.139 165.896C315.139 164.286 313.985 162.981 312.561 162.981C311.137 162.981 309.982 164.286 309.982 165.896C309.982 167.505 311.137 168.81 312.561 168.81Z" fill="#F2F2F2"/>
<path d="M57.5719 281.03C62.2809 289.161 62.1304 316.334 61.9858 324.102C61.9816 324.337 61.9269 324.567 61.8263 324.772C61.7257 324.977 61.5822 325.152 61.4085 325.28C61.2347 325.409 61.0358 325.488 60.829 325.51C60.6222 325.532 60.4138 325.496 60.2219 325.407C53.8652 322.448 31.7694 311.73 27.0604 303.6C25.7473 301.336 24.8418 298.801 24.3957 296.142C23.9495 293.482 23.9715 290.749 24.4604 288.099C24.9492 285.448 25.8954 282.933 27.2447 280.696C28.594 278.46 30.3201 276.545 32.3244 275.063C34.3286 273.58 36.5717 272.558 38.9255 272.056C41.2792 271.554 43.6975 271.58 46.0422 272.134C48.3869 272.688 50.6119 273.759 52.5902 275.286C54.5686 276.812 56.2614 278.764 57.5719 281.03Z" fill="#F2F2F2"/>
<path d="M41.6155 301.589C46.7387 301.589 50.892 296.895 50.892 291.105C50.892 285.315 46.7387 280.621 41.6155 280.621C36.4922 280.621 32.339 285.315 32.339 291.105C32.339 296.895 36.4922 301.589 41.6155 301.589Z" fill="white"/>
<path d="M66.4913 338.756C68.7879 338.756 70.6497 336.652 70.6497 334.056C70.6497 331.461 68.7879 329.357 66.4913 329.357C64.1947 329.357 62.3329 331.461 62.3329 334.056C62.3329 336.652 64.1947 338.756 66.4913 338.756Z" fill="#F2F2F2"/>
</svg>
