<svg width="23" height="22" viewBox="0 0 23 22" fill="none" xmlns="http://www.w3.org/2000/svg">
<path d="M1.36835 12.9789L2.09659 12.7996L1.36835 12.9789ZM1.36835 6.91555L2.09659 7.09492L1.36835 6.91555ZM19.4209 6.91556L20.1491 6.7362L19.4209 6.91556ZM19.4209 12.9789L20.1491 13.1583L19.4209 12.9789ZM13.5779 18.5437L13.4144 17.8117L13.5779 18.5437ZM7.21134 18.5437L7.04782 19.2757L7.21134 18.5437ZM7.21133 1.35081L7.04782 0.618851L7.21133 1.35081ZM13.5779 1.35081L13.7414 0.618851L13.5779 1.35081ZM21.4828 21.5431C21.7827 21.8288 22.2574 21.8172 22.5431 21.5172C22.8288 21.2173 22.8172 20.7426 22.5172 20.4569L21.4828 21.5431ZM2.09659 12.7996C1.63447 10.9233 1.63447 8.97117 2.09659 7.09492L0.640113 6.73619C0.119962 8.84807 0.119962 11.0464 0.640113 13.1583L2.09659 12.7996ZM18.6926 7.09492C19.1548 8.97117 19.1548 10.9233 18.6926 12.7996L20.1491 13.1583C20.6693 11.0464 20.6693 8.84808 20.1491 6.7362L18.6926 7.09492ZM13.4144 17.8117C11.4283 18.2554 9.36094 18.2554 7.37485 17.8117L7.04782 19.2757C9.24927 19.7675 11.54 19.7675 13.7414 19.2757L13.4144 17.8117ZM7.37485 2.08277C9.36094 1.63908 11.4283 1.63908 13.4144 2.08277L13.7414 0.618851C11.54 0.12705 9.24927 0.12705 7.04782 0.618851L7.37485 2.08277ZM7.37485 17.8117C4.73781 17.2226 2.70479 15.269 2.09659 12.7996L0.640113 13.1583C1.39203 16.2112 3.88646 18.5694 7.04782 19.2757L7.37485 17.8117ZM13.7414 19.2757C16.9028 18.5694 19.3972 16.2112 20.1491 13.1583L18.6926 12.7996C18.0844 15.269 16.0514 17.2226 13.4144 17.8117L13.7414 19.2757ZM13.4144 2.08277C16.0514 2.67188 18.0844 4.62552 18.6926 7.09492L20.1491 6.7362C19.3972 3.6833 16.9028 1.32509 13.7414 0.618851L13.4144 2.08277ZM7.04782 0.618851C3.88645 1.32509 1.39203 3.6833 0.640113 6.73619L2.09659 7.09492C2.70479 4.62552 4.73781 2.67188 7.37485 2.08277L7.04782 0.618851ZM17.2071 17.471L21.4828 21.5431L22.5172 20.4569L18.2416 16.3848L17.2071 17.471Z" fill="#363853" fill-opacity="0.2"/>
</svg>
